<svg width="20" height="15" viewBox="0 0 20 15" fill="none" xmlns="http://www.w3.org/2000/svg">
<path d="M17 0H3C2.20435 0 1.44129 0.292022 0.87868 0.811824C0.316071 1.33163 0 2.03663 0 2.77174V12.0109C0 12.746 0.316071 13.451 0.87868 13.9708C1.44129 14.4906 2.20435 14.7826 3 14.7826H17C17.7956 14.7826 18.5587 14.4906 19.1213 13.9708C19.6839 13.451 20 12.746 20 12.0109V2.77174C20 2.03663 19.6839 1.33163 19.1213 0.811824C18.5587 0.292022 17.7956 0 17 0ZM17 1.84783L10.5 5.97772C10.348 6.05881 10.1755 6.1015 10 6.1015C9.82446 6.1015 9.65202 6.05881 9.5 5.97772L3 1.84783H17Z" fill="#7C7878"/>
</svg>
