<svg width="142" height="23" viewBox="0 0 142 23" fill="none" xmlns="http://www.w3.org/2000/svg">
<path d="M13.1474 4.92062V19H10.9066V12.7932H3.80738V19H1.58641V4.92062H3.80738V10.8102H10.9066V4.92062H13.1474ZM20.5316 19.1983C19.712 19.1983 18.9782 19.0595 18.3305 18.7819C17.6827 18.491 17.1208 18.0944 16.6449 17.5921C16.1822 17.0897 15.8253 16.5212 15.5741 15.8867C15.3229 15.2389 15.1973 14.5514 15.1973 13.8243C15.1973 13.0972 15.3229 12.4098 15.5741 11.762C15.8253 11.1142 16.1822 10.5458 16.6449 10.0566C17.1208 9.55425 17.6827 9.16426 18.3305 8.88664C18.9915 8.5958 19.7252 8.45038 20.5316 8.45038C21.338 8.45038 22.0651 8.5958 22.7129 8.88664C23.3739 9.16426 23.9358 9.55425 24.3985 10.0566C24.8744 10.5458 25.238 11.1142 25.4891 11.762C25.7403 12.4098 25.8659 13.0972 25.8659 13.8243C25.8659 14.5514 25.7403 15.2389 25.4891 15.8867C25.238 16.5212 24.8744 17.0897 24.3985 17.5921C23.9358 18.0944 23.3739 18.491 22.7129 18.7819C22.0651 19.0595 21.338 19.1983 20.5316 19.1983ZM17.4381 13.8442C17.4381 14.5052 17.5769 15.1001 17.8545 15.6289C18.1322 16.1577 18.5023 16.5741 18.965 16.8782C19.4277 17.1822 19.9499 17.3343 20.5316 17.3343C21.1001 17.3343 21.6157 17.1822 22.0784 16.8782C22.5543 16.5609 22.9311 16.1379 23.2087 15.6091C23.4863 15.067 23.6251 14.4721 23.6251 13.8243C23.6251 13.1633 23.4863 12.5684 23.2087 12.0396C22.9311 11.5108 22.5543 11.0944 22.0784 10.7903C21.6157 10.473 21.1001 10.3144 20.5316 10.3144C19.9499 10.3144 19.4277 10.473 18.965 10.7903C18.5023 11.1076 18.1322 11.5307 17.8545 12.0595C17.5769 12.575 17.4381 13.1699 17.4381 13.8442ZM40.3812 8.62885H42.4634L38.1008 19H36.2367L34.3727 14.3201L32.5087 19H30.6447L26.2622 8.62885H28.3444L31.6758 16.8782L33.1433 13.051L31.3585 8.64868H33.2027L34.3727 11.881L35.5229 8.64868H37.3671L35.6022 13.051L37.0696 16.8782L40.3812 8.62885ZM48.2504 19V8.62885H50.4317V19H48.2504ZM48.2504 6.92346V4.52401H50.4317V6.92346H48.2504ZM58.8236 18.4646C58.6385 18.5571 58.4071 18.6563 58.1295 18.762C57.8519 18.8678 57.5346 18.9603 57.1777 19.0397C56.8339 19.119 56.477 19.1586 56.1068 19.1586C55.6574 19.1586 55.2409 19.0793 54.8575 18.9207C54.4742 18.762 54.1635 18.5109 53.9255 18.1671C53.7008 17.8102 53.5884 17.3541 53.5884 16.7989V10.3144H52.2201V8.62885H53.5884V5.21807H55.7697V8.62885H58.0304V10.3144H55.7697V16.1048C55.7962 16.4617 55.9085 16.7261 56.1068 16.898C56.3184 17.0699 56.5761 17.1558 56.8802 17.1558C57.1843 17.1558 57.4751 17.1029 57.7527 16.9972C58.0304 16.8914 58.2353 16.8055 58.3675 16.7394L58.8236 18.4646ZM77.6014 8.62885H79.6836L75.321 19H73.4569L71.5929 14.3201L69.7289 19H67.8649L63.4824 8.62885H65.5646L68.896 16.8782L70.3634 13.051L68.5787 8.64868H70.4229L71.5929 11.881L72.7431 8.64868H74.5873L72.8224 13.051L74.2898 16.8782L77.6014 8.62885ZM85.4443 19.1983C84.6246 19.1983 83.8909 19.0595 83.2431 18.7819C82.5953 18.491 82.0335 18.0944 81.5575 17.5921C81.0948 17.0897 80.7379 16.5212 80.4867 15.8867C80.2355 15.2389 80.11 14.5514 80.11 13.8243C80.11 13.0972 80.2355 12.4098 80.4867 11.762C80.7379 11.1142 81.0948 10.5458 81.5575 10.0566C82.0335 9.55425 82.5953 9.16426 83.2431 8.88664C83.9041 8.5958 84.6378 8.45038 85.4443 8.45038C86.2507 8.45038 86.9778 8.5958 87.6256 8.88664C88.2866 9.16426 88.8484 9.55425 89.3111 10.0566C89.787 10.5458 90.1506 11.1142 90.4018 11.762C90.653 12.4098 90.7786 13.0972 90.7786 13.8243C90.7786 14.5514 90.653 15.2389 90.4018 15.8867C90.1506 16.5212 89.787 17.0897 89.3111 17.5921C88.8484 18.0944 88.2866 18.491 87.6256 18.7819C86.9778 19.0595 86.2507 19.1983 85.4443 19.1983ZM82.3508 13.8442C82.3508 14.5052 82.4896 15.1001 82.7672 15.6289C83.0448 16.1577 83.415 16.5741 83.8777 16.8782C84.3404 17.1822 84.8626 17.3343 85.4443 17.3343C86.0127 17.3343 86.5283 17.1822 86.991 16.8782C87.4669 16.5609 87.8437 16.1379 88.1213 15.6091C88.3989 15.067 88.5378 14.4721 88.5378 13.8243C88.5378 13.1633 88.3989 12.5684 88.1213 12.0396C87.8437 11.5108 87.4669 11.0944 86.991 10.7903C86.5283 10.473 86.0127 10.3144 85.4443 10.3144C84.8626 10.3144 84.3404 10.473 83.8777 10.7903C83.415 11.1076 83.0448 11.5307 82.7672 12.0595C82.4896 12.575 82.3508 13.1699 82.3508 13.8442ZM98.5433 10.5127C97.6972 10.5259 96.9437 10.7176 96.2827 11.0878C95.6349 11.4579 95.1722 11.9801 94.8945 12.6544V19H92.7132V8.62885H94.7359V10.949C95.0928 10.2351 95.5622 9.66663 96.1438 9.24358C96.7255 8.80732 97.3403 8.56936 97.988 8.5297C98.1202 8.5297 98.226 8.5297 98.3053 8.5297C98.3979 8.5297 98.4772 8.53631 98.5433 8.54953V10.5127ZM107.348 19L104.017 14.2209L102.311 15.847V19H100.13V4.52401H102.311V13.6459L107.11 8.64868H109.45L105.425 12.9915L109.668 19H107.348ZM114.644 19.1983C113.771 19.1983 112.945 19.0595 112.165 18.7819C111.385 18.491 110.717 18.0614 110.162 17.4929L110.975 16.0255C111.57 16.5543 112.165 16.9377 112.76 17.1756C113.368 17.4136 113.97 17.5326 114.564 17.5326C115.173 17.5326 115.668 17.4202 116.052 17.1955C116.435 16.9575 116.627 16.6138 116.627 16.1643C116.627 15.8338 116.528 15.5892 116.329 15.4306C116.131 15.2719 115.84 15.1331 115.457 15.0141C115.087 14.8952 114.637 14.763 114.108 14.6175C113.368 14.3928 112.747 14.1615 112.244 13.9235C111.742 13.6723 111.365 13.3682 111.114 13.0113C110.863 12.6544 110.737 12.1983 110.737 11.643C110.737 10.9688 110.909 10.3937 111.253 9.91781C111.597 9.44188 112.072 9.07833 112.681 8.82715C113.302 8.57597 114.016 8.45038 114.822 8.45038C115.576 8.45038 116.27 8.56936 116.904 8.80732C117.552 9.03206 118.121 9.389 118.61 9.87815L117.678 11.3257C117.215 10.9027 116.739 10.592 116.25 10.3937C115.774 10.1954 115.259 10.0963 114.703 10.0963C114.386 10.0963 114.082 10.1359 113.791 10.2153C113.5 10.2814 113.256 10.4136 113.057 10.6119C112.872 10.7969 112.78 11.0613 112.78 11.4051C112.78 11.6827 112.859 11.9074 113.018 12.0793C113.176 12.2512 113.414 12.3966 113.732 12.5156C114.049 12.6345 114.439 12.7667 114.902 12.9122C115.708 13.1501 116.395 13.3881 116.964 13.626C117.532 13.8508 117.969 14.1482 118.273 14.5184C118.59 14.8753 118.749 15.3711 118.749 16.0057C118.749 17.0104 118.372 17.797 117.618 18.3654C116.878 18.9207 115.886 19.1983 114.644 19.1983Z" fill="#0A5B9A"/>
<path d="M134.68 17.7645L128.956 7.84947L140.404 7.84947L134.68 17.7645Z" fill="#FF8900" fill-opacity="0.36"/>
</svg>
