<svg width="203" height="23" viewBox="0 0 203 23" fill="none" xmlns="http://www.w3.org/2000/svg">
<path d="M13.1474 4.92062V19H10.9066V12.7932H3.80738V19H1.58641V4.92062H3.80738V10.8102H10.9066V4.92062H13.1474ZM20.5316 19.1983C19.712 19.1983 18.9782 19.0595 18.3305 18.7819C17.6827 18.491 17.1208 18.0944 16.6449 17.5921C16.1822 17.0897 15.8253 16.5212 15.5741 15.8867C15.3229 15.2389 15.1973 14.5514 15.1973 13.8243C15.1973 13.0972 15.3229 12.4098 15.5741 11.762C15.8253 11.1142 16.1822 10.5458 16.6449 10.0566C17.1208 9.55425 17.6827 9.16426 18.3305 8.88664C18.9915 8.5958 19.7252 8.45038 20.5316 8.45038C21.338 8.45038 22.0651 8.5958 22.7129 8.88664C23.3739 9.16426 23.9358 9.55425 24.3985 10.0566C24.8744 10.5458 25.238 11.1142 25.4891 11.762C25.7403 12.4098 25.8659 13.0972 25.8659 13.8243C25.8659 14.5514 25.7403 15.2389 25.4891 15.8867C25.238 16.5212 24.8744 17.0897 24.3985 17.5921C23.9358 18.0944 23.3739 18.491 22.7129 18.7819C22.0651 19.0595 21.338 19.1983 20.5316 19.1983ZM17.4381 13.8442C17.4381 14.5052 17.5769 15.1001 17.8545 15.6289C18.1322 16.1577 18.5023 16.5741 18.965 16.8782C19.4277 17.1822 19.9499 17.3343 20.5316 17.3343C21.1001 17.3343 21.6157 17.1822 22.0784 16.8782C22.5543 16.5609 22.9311 16.1379 23.2087 15.6091C23.4863 15.067 23.6251 14.4721 23.6251 13.8243C23.6251 13.1633 23.4863 12.5684 23.2087 12.0396C22.9311 11.5108 22.5543 11.0944 22.0784 10.7903C21.6157 10.473 21.1001 10.3144 20.5316 10.3144C19.9499 10.3144 19.4277 10.473 18.965 10.7903C18.5023 11.1076 18.1322 11.5307 17.8545 12.0595C17.5769 12.575 17.4381 13.1699 17.4381 13.8442ZM40.3812 8.62885H42.4634L38.1008 19H36.2367L34.3727 14.3201L32.5087 19H30.6447L26.2622 8.62885H28.3444L31.6758 16.8782L33.1433 13.051L31.3585 8.64868H33.2027L34.3727 11.881L35.5229 8.64868H37.3671L35.6022 13.051L37.0696 16.8782L40.3812 8.62885ZM60.618 8.62885H62.7002L58.3376 19H56.4735L54.6095 14.3201L52.7455 19H50.8814L46.499 8.62885H48.5812L51.9126 16.8782L53.38 13.051L51.5953 8.64868H53.4395L54.6095 11.881L55.7597 8.64868H57.6039L55.839 13.051L57.3064 16.8782L60.618 8.62885ZM68.5005 19.1983C67.6941 19.1983 66.9604 19.0595 66.2994 18.7819C65.6516 18.491 65.0897 18.101 64.6138 17.6119C64.1379 17.1095 63.7677 16.5411 63.5033 15.9065C63.2521 15.2587 63.1265 14.5713 63.1265 13.8442C63.1265 12.8659 63.3513 11.9735 63.8008 11.1671C64.2502 10.3475 64.8782 9.69307 65.6846 9.20392C66.4911 8.70156 67.4363 8.45038 68.5203 8.45038C69.6044 8.45038 70.5364 8.70156 71.3164 9.20392C72.1096 9.69307 72.7243 10.3408 73.1606 11.1473C73.5968 11.9537 73.815 12.8196 73.815 13.745C73.815 13.9037 73.8084 14.0557 73.7951 14.2011C73.7819 14.3333 73.7687 14.4457 73.7555 14.5382H65.4467C65.4863 15.1463 65.6516 15.6818 65.9424 16.1445C66.2465 16.5939 66.6299 16.9509 67.0926 17.2153C67.5553 17.4665 68.051 17.5921 68.5798 17.5921C69.1615 17.5921 69.7101 17.4466 70.2257 17.1558C70.7545 16.865 71.1115 16.4816 71.2966 16.0057L73.1606 16.5411C72.9358 17.0434 72.5921 17.4995 72.1294 17.9093C71.6799 18.3059 71.1445 18.6232 70.5232 18.8612C69.9018 19.0859 69.2276 19.1983 68.5005 19.1983ZM65.3872 13.0906H71.6535C71.6138 12.4957 71.442 11.9735 71.1379 11.524C70.8471 11.0613 70.4703 10.7044 70.0076 10.4532C69.5581 10.1888 69.0557 10.0566 68.5005 10.0566C67.9585 10.0566 67.4561 10.1888 66.9934 10.4532C66.5439 10.7044 66.1738 11.0613 65.8829 11.524C65.5921 11.9735 65.4268 12.4957 65.3872 13.0906ZM82.8467 19L78.9005 8.62885H81.1611L84.1158 16.9773L87.0705 8.62885H89.1725L85.2263 19H82.8467ZM95.0891 19.1983C94.2827 19.1983 93.549 19.0595 92.888 18.7819C92.2402 18.491 91.6783 18.101 91.2024 17.6119C90.7265 17.1095 90.3563 16.5411 90.0919 15.9065C89.8408 15.2587 89.7152 14.5713 89.7152 13.8442C89.7152 12.8659 89.9399 11.9735 90.3894 11.1671C90.8389 10.3475 91.4668 9.69307 92.2732 9.20392C93.0797 8.70156 94.0249 8.45038 95.109 8.45038C96.193 8.45038 97.125 8.70156 97.905 9.20392C98.6982 9.69307 99.3129 10.3408 99.7492 11.1473C100.185 11.9537 100.404 12.8196 100.404 13.745C100.404 13.9037 100.397 14.0557 100.384 14.2011C100.371 14.3333 100.357 14.4457 100.344 14.5382H92.0353C92.0749 15.1463 92.2402 15.6818 92.531 16.1445C92.8351 16.5939 93.2185 16.9509 93.6812 17.2153C94.1439 17.4665 94.6396 17.5921 95.1684 17.5921C95.7501 17.5921 96.2988 17.4466 96.8143 17.1558C97.3431 16.865 97.7001 16.4816 97.8852 16.0057L99.7492 16.5411C99.5245 17.0434 99.1807 17.4995 98.718 17.9093C98.2686 18.3059 97.7331 18.6232 97.1118 18.8612C96.4905 19.0859 95.8162 19.1983 95.0891 19.1983ZM91.9758 13.0906H98.2421C98.2025 12.4957 98.0306 11.9735 97.7265 11.524C97.4357 11.0613 97.0589 10.7044 96.5962 10.4532C96.1467 10.1888 95.6444 10.0566 95.0891 10.0566C94.5471 10.0566 94.0447 10.1888 93.582 10.4532C93.1326 10.7044 92.7624 11.0613 92.4715 11.524C92.1807 11.9735 92.0155 12.4957 91.9758 13.0906ZM107.857 18.4646C107.672 18.5571 107.44 18.6563 107.163 18.762C106.885 18.8678 106.568 18.9603 106.211 19.0397C105.867 19.119 105.51 19.1586 105.14 19.1586C104.69 19.1586 104.274 19.0793 103.891 18.9207C103.507 18.762 103.197 18.5109 102.959 18.1671C102.734 17.8102 102.621 17.3541 102.621 16.7989V10.3144H101.253V8.62885H102.621V5.21807H104.803V8.62885H107.063V10.3144H104.803V16.1048C104.829 16.4617 104.942 16.7261 105.14 16.898C105.351 17.0699 105.609 17.1558 105.913 17.1558C106.217 17.1558 106.508 17.1029 106.786 16.9972C107.063 16.8914 107.268 16.8055 107.401 16.7394L107.857 18.4646ZM124.276 6.8838H119.596V19H117.355V6.8838H112.655V4.92062H124.276V6.8838ZM123.254 15.966C123.254 15.305 123.439 14.7299 123.809 14.2408C124.193 13.7384 124.715 13.355 125.376 13.0906C126.037 12.813 126.804 12.6742 127.676 12.6742C128.139 12.6742 128.608 12.7072 129.084 12.7733C129.573 12.8394 130.003 12.9452 130.373 13.0906V12.4362C130.373 11.7091 130.155 11.1407 129.719 10.7308C129.282 10.321 128.654 10.1161 127.835 10.1161C127.253 10.1161 126.705 10.2219 126.189 10.4334C125.673 10.6317 125.125 10.9159 124.543 11.2861L123.809 9.81866C124.497 9.35595 125.184 9.01223 125.872 8.78749C126.572 8.56275 127.306 8.45038 128.073 8.45038C129.461 8.45038 130.552 8.82054 131.345 9.56086C132.151 10.288 132.554 11.3257 132.554 12.6742V16.5411C132.554 16.7922 132.594 16.9707 132.673 17.0765C132.766 17.1822 132.918 17.2417 133.129 17.2549V19C132.931 19.0397 132.753 19.0661 132.594 19.0793C132.435 19.0925 132.303 19.0992 132.197 19.0992C131.735 19.0992 131.384 18.9868 131.146 18.762C130.909 18.5373 130.77 18.2729 130.73 17.9688L130.671 17.3739C130.221 17.9556 129.646 18.4051 128.945 18.7224C128.245 19.0397 127.537 19.1983 126.824 19.1983C126.136 19.1983 125.521 19.0595 124.979 18.7819C124.437 18.491 124.014 18.101 123.71 17.6119C123.406 17.1227 123.254 16.5741 123.254 15.966ZM129.858 16.6006C130.016 16.4287 130.142 16.2568 130.234 16.085C130.327 15.9131 130.373 15.7611 130.373 15.6289V14.4391C130.003 14.2937 129.613 14.1879 129.203 14.1218C128.793 14.0425 128.39 14.0028 127.993 14.0028C127.2 14.0028 126.552 14.1615 126.05 14.4787C125.561 14.796 125.316 15.2323 125.316 15.7875C125.316 16.0916 125.396 16.3824 125.554 16.66C125.726 16.9377 125.964 17.1624 126.268 17.3343C126.586 17.5061 126.976 17.5921 127.438 17.5921C127.914 17.5921 128.37 17.4995 128.807 17.3144C129.243 17.1294 129.593 16.8914 129.858 16.6006ZM135.221 4.52401H137.402V16.0057C137.402 16.5345 137.481 16.8716 137.64 17.017C137.799 17.1624 137.997 17.2351 138.235 17.2351C138.499 17.2351 138.744 17.2087 138.969 17.1558C139.206 17.1029 139.411 17.0368 139.583 16.9575L139.901 18.6827C139.583 18.8149 139.206 18.9273 138.77 19.0198C138.334 19.1124 137.944 19.1586 137.6 19.1586C136.86 19.1586 136.278 18.9537 135.855 18.5439C135.432 18.1209 135.221 17.5392 135.221 16.7989V4.52401ZM145.865 19.1983C145.059 19.1983 144.325 19.0595 143.664 18.7819C143.016 18.491 142.454 18.101 141.978 17.6119C141.502 17.1095 141.132 16.5411 140.868 15.9065C140.617 15.2587 140.491 14.5713 140.491 13.8442C140.491 12.8659 140.716 11.9735 141.165 11.1671C141.615 10.3475 142.243 9.69307 143.049 9.20392C143.856 8.70156 144.801 8.45038 145.885 8.45038C146.969 8.45038 147.901 8.70156 148.681 9.20392C149.474 9.69307 150.089 10.3408 150.525 11.1473C150.961 11.9537 151.18 12.8196 151.18 13.745C151.18 13.9037 151.173 14.0557 151.16 14.2011C151.146 14.3333 151.133 14.4457 151.12 14.5382H142.811C142.851 15.1463 143.016 15.6818 143.307 16.1445C143.611 16.5939 143.994 16.9509 144.457 17.2153C144.92 17.4665 145.416 17.5921 145.944 17.5921C146.526 17.5921 147.075 17.4466 147.59 17.1558C148.119 16.865 148.476 16.4816 148.661 16.0057L150.525 16.5411C150.3 17.0434 149.957 17.4995 149.494 17.9093C149.044 18.3059 148.509 18.6232 147.888 18.8612C147.266 19.0859 146.592 19.1983 145.865 19.1983ZM142.752 13.0906H149.018C148.978 12.4957 148.807 11.9735 148.502 11.524C148.212 11.0613 147.835 10.7044 147.372 10.4532C146.923 10.1888 146.42 10.0566 145.865 10.0566C145.323 10.0566 144.821 10.1888 144.358 10.4532C143.908 10.7044 143.538 11.0613 143.247 11.524C142.957 11.9735 142.791 12.4957 142.752 13.0906ZM162.259 19H160.078V13.1898C160.078 12.2247 159.919 11.5174 159.602 11.068C159.298 10.6185 158.842 10.3937 158.234 10.3937C157.811 10.3937 157.388 10.4995 156.965 10.711C156.555 10.9225 156.185 11.2134 155.854 11.5835C155.524 11.9405 155.286 12.3569 155.14 12.8328V19H152.959V8.62885H154.942V10.711C155.206 10.2483 155.55 9.85171 155.973 9.5212C156.409 9.17748 156.898 8.91308 157.44 8.728C157.982 8.54292 158.558 8.45038 159.166 8.45038C159.787 8.45038 160.296 8.56275 160.693 8.78749C161.102 9.01223 161.42 9.3229 161.644 9.71951C161.882 10.1029 162.041 10.5524 162.12 11.068C162.213 11.5703 162.259 12.1057 162.259 12.6742V19ZM170.484 18.4646C170.299 18.5571 170.068 18.6563 169.79 18.762C169.512 18.8678 169.195 18.9603 168.838 19.0397C168.495 19.119 168.138 19.1586 167.767 19.1586C167.318 19.1586 166.902 19.0793 166.518 18.9207C166.135 18.762 165.824 18.5109 165.586 18.1671C165.361 17.8102 165.249 17.3541 165.249 16.7989V10.3144H163.881V8.62885H165.249V5.21807H167.43V8.62885H169.691V10.3144H167.43V16.1048C167.457 16.4617 167.569 16.7261 167.767 16.898C167.979 17.0699 168.237 17.1558 168.541 17.1558C168.845 17.1558 169.136 17.1029 169.413 16.9972C169.691 16.8914 169.896 16.8055 170.028 16.7394L170.484 18.4646ZM175.683 19.1983C174.811 19.1983 173.985 19.0595 173.205 18.7819C172.425 18.491 171.757 18.0614 171.202 17.4929L172.015 16.0255C172.61 16.5543 173.205 16.9377 173.8 17.1756C174.408 17.4136 175.009 17.5326 175.604 17.5326C176.212 17.5326 176.708 17.4202 177.091 17.1955C177.475 16.9575 177.666 16.6138 177.666 16.1643C177.666 15.8338 177.567 15.5892 177.369 15.4306C177.171 15.2719 176.88 15.1331 176.496 15.0141C176.126 14.8952 175.677 14.763 175.148 14.6175C174.408 14.3928 173.786 14.1615 173.284 13.9235C172.782 13.6723 172.405 13.3682 172.154 13.0113C171.902 12.6544 171.777 12.1983 171.777 11.643C171.777 10.9688 171.949 10.3937 172.292 9.91781C172.636 9.44188 173.112 9.07833 173.72 8.82715C174.342 8.57597 175.055 8.45038 175.862 8.45038C176.615 8.45038 177.309 8.56936 177.944 8.80732C178.592 9.03206 179.16 9.389 179.649 9.87815L178.717 11.3257C178.255 10.9027 177.779 10.592 177.29 10.3937C176.814 10.1954 176.298 10.0963 175.743 10.0963C175.426 10.0963 175.122 10.1359 174.831 10.2153C174.54 10.2814 174.295 10.4136 174.097 10.6119C173.912 10.7969 173.819 11.0613 173.819 11.4051C173.819 11.6827 173.899 11.9074 174.057 12.0793C174.216 12.2512 174.454 12.3966 174.771 12.5156C175.088 12.6345 175.478 12.7667 175.941 12.9122C176.748 13.1501 177.435 13.3881 178.003 13.626C178.572 13.8508 179.008 14.1482 179.312 14.5184C179.63 14.8753 179.788 15.3711 179.788 16.0057C179.788 17.0104 179.411 17.797 178.658 18.3654C177.918 18.9207 176.926 19.1983 175.683 19.1983Z" fill="#0A5B9A"/>
<path d="M195.823 17.7645L190.098 7.84947L201.547 7.84947L195.823 17.7645Z" fill="#FF8900" fill-opacity="0.36"/>
</svg>
