<svg width="689" height="676" viewBox="0 0 689 676" fill="none" xmlns="http://www.w3.org/2000/svg">
<path d="M161.507 31.7862C56.1014 29.2982 -51.0529 212.702 123.656 280.75C260.698 334.128 472.747 170.206 603.099 323.582C733.451 476.958 602.697 647.641 481.051 644.77" stroke="url(#paint0_linear_979_2754)" stroke-opacity="0.05" stroke-width="62" stroke-linecap="round"/>
<path d="M173 361.933C185.667 340.099 247.5 309.533 393.5 361.933C539.5 414.333 610.333 365.433 627.5 334.433" stroke="url(#paint1_linear_979_2754)" stroke-width="3"/>
<path d="M182.472 310V219.12H222.664C226.845 219.12 230.685 219.973 234.184 221.68C237.768 223.387 240.84 225.691 243.4 228.592C246.045 231.493 248.051 234.736 249.416 238.32C250.867 241.904 251.592 245.573 251.592 249.328C251.592 253.168 250.909 256.88 249.544 260.464C248.264 263.963 246.387 267.035 243.912 269.68C241.437 272.325 238.536 274.373 235.208 275.824L255.944 310H236.488L217.8 279.536H200.136V310H182.472ZM200.136 264.048H222.28C224.499 264.048 226.461 263.408 228.168 262.128C229.875 260.763 231.24 258.971 232.264 256.752C233.288 254.533 233.8 252.059 233.8 249.328C233.8 246.427 233.203 243.909 232.008 241.776C230.813 239.557 229.277 237.808 227.4 236.528C225.608 235.248 223.645 234.608 221.512 234.608H200.136V264.048ZM294.787 311.28C289.411 311.28 284.547 310.384 280.195 308.592C275.843 306.715 272.131 304.197 269.059 301.04C265.987 297.797 263.598 294.128 261.891 290.032C260.27 285.851 259.459 281.456 259.459 276.848C259.459 270.448 260.867 264.603 263.683 259.312C266.584 254.021 270.68 249.797 275.971 246.64C281.347 243.397 287.662 241.776 294.915 241.776C302.254 241.776 308.526 243.397 313.731 246.64C318.936 249.797 322.904 254.021 325.635 259.312C328.451 264.517 329.859 270.149 329.859 276.208C329.859 277.232 329.816 278.299 329.731 279.408C329.646 280.432 329.56 281.285 329.475 281.968H277.635C277.976 285.381 278.958 288.368 280.579 290.928C282.286 293.488 284.419 295.451 286.979 296.816C289.624 298.096 292.44 298.736 295.427 298.736C298.84 298.736 302.04 297.925 305.027 296.304C308.099 294.597 310.19 292.379 311.299 289.648L326.019 293.744C324.398 297.157 322.051 300.187 318.979 302.832C315.992 305.477 312.451 307.568 308.355 309.104C304.259 310.555 299.736 311.28 294.787 311.28ZM277.251 271.088H312.323C311.982 267.675 311 264.731 309.379 262.256C307.843 259.696 305.795 257.733 303.235 256.368C300.675 254.917 297.816 254.192 294.659 254.192C291.587 254.192 288.771 254.917 286.211 256.368C283.736 257.733 281.688 259.696 280.067 262.256C278.531 264.731 277.592 267.675 277.251 271.088ZM365.012 311.28C359.295 311.28 353.833 310.341 348.628 308.464C343.423 306.587 338.943 303.813 335.188 300.144L341.332 289.008C345.343 292.251 349.268 294.64 353.108 296.176C357.033 297.712 360.788 298.48 364.372 298.48C367.7 298.48 370.345 297.883 372.308 296.688C374.356 295.493 375.38 293.701 375.38 291.312C375.38 289.691 374.825 288.453 373.716 287.6C372.607 286.661 370.985 285.851 368.852 285.168C366.804 284.485 364.287 283.717 361.3 282.864C356.351 281.243 352.212 279.664 348.884 278.128C345.556 276.592 343.039 274.672 341.332 272.368C339.711 269.979 338.9 266.949 338.9 263.28C338.9 258.843 340.009 255.045 342.228 251.888C344.532 248.645 347.689 246.128 351.7 244.336C355.796 242.544 360.575 241.648 366.036 241.648C370.815 241.648 375.337 242.416 379.604 243.952C383.871 245.403 387.753 247.792 391.252 251.12L384.34 262C380.927 259.355 377.684 257.435 374.612 256.24C371.54 254.96 368.425 254.32 365.268 254.32C363.476 254.32 361.769 254.533 360.148 254.96C358.612 255.387 357.332 256.112 356.308 257.136C355.369 258.075 354.9 259.44 354.9 261.232C354.9 262.853 355.327 264.133 356.18 265.072C357.119 265.925 358.484 266.693 360.276 267.376C362.153 268.059 364.415 268.827 367.06 269.68C372.436 271.216 376.959 272.795 380.628 274.416C384.383 276.037 387.199 278.043 389.076 280.432C390.953 282.736 391.892 285.936 391.892 290.032C391.892 296.688 389.46 301.893 384.596 305.648C379.732 309.403 373.204 311.28 365.012 311.28ZM402.918 284.912V242.928H420.07V281.2C420.07 286.32 421.009 290.203 422.886 292.848C424.763 295.408 427.537 296.688 431.206 296.688C433.425 296.688 435.601 296.261 437.734 295.408C439.953 294.469 441.958 293.104 443.75 291.312C445.627 289.52 447.206 287.259 448.486 284.528V242.928H465.638V290.8C465.638 292.592 465.937 293.872 466.534 294.64C467.217 295.408 468.283 295.877 469.734 296.048V310C468.027 310.256 466.577 310.427 465.382 310.512C464.273 310.683 463.249 310.768 462.31 310.768C459.238 310.768 456.721 310.085 454.758 308.72C452.881 307.269 451.771 305.307 451.43 302.832L451.046 297.456C448.059 301.979 444.219 305.435 439.526 307.824C434.833 310.128 429.67 311.28 424.038 311.28C417.126 311.28 411.878 309.061 408.294 304.624C404.71 300.101 402.918 293.531 402.918 284.912ZM482.555 216.56H499.707V288.496C499.707 291.568 500.219 293.659 501.243 294.768C502.267 295.792 503.675 296.304 505.467 296.304C506.832 296.304 508.24 296.133 509.691 295.792C511.142 295.451 512.422 295.024 513.531 294.512L515.835 307.568C513.531 308.677 510.843 309.531 507.771 310.128C504.699 310.725 501.926 311.024 499.451 311.024C494.075 311.024 489.894 309.616 486.907 306.8C484.006 303.899 482.555 299.803 482.555 294.512V216.56ZM562.75 306.544C561.299 307.141 559.55 307.824 557.502 308.592C555.454 309.36 553.235 309.957 550.846 310.384C548.542 310.896 546.195 311.152 543.806 311.152C540.649 311.152 537.747 310.597 535.102 309.488C532.457 308.379 530.323 306.629 528.702 304.24C527.166 301.765 526.398 298.565 526.398 294.64V256.112H517.566V242.928H526.398V221.168H543.55V242.928H557.63V256.112H543.55V288.88C543.635 291.184 544.275 292.848 545.47 293.872C546.665 294.896 548.158 295.408 549.95 295.408C551.742 295.408 553.491 295.109 555.198 294.512C556.905 293.915 558.27 293.403 559.294 292.976L562.75 306.544Z" fill="url(#paint2_linear_979_2754)"/>
<path d="M212.424 108.224C212.424 110.443 211.869 112.448 210.76 114.24C209.693 115.989 208.221 117.397 206.344 118.464C204.509 119.488 202.461 120 200.2 120H178.952V74.56H200.136C202.269 74.56 204.104 75.136 205.64 76.288C207.219 77.3973 208.413 78.848 209.224 80.64C210.077 82.3893 210.504 84.224 210.504 86.144C210.504 88.4053 209.928 90.5173 208.776 92.48C207.624 94.4 206.024 95.808 203.976 96.704C206.579 97.472 208.627 98.9227 210.12 101.056C211.656 103.147 212.424 105.536 212.424 108.224ZM209.16 107.776C209.16 106.155 208.776 104.64 208.008 103.232C207.283 101.824 206.28 100.672 205 99.776C203.72 98.88 202.269 98.432 200.648 98.432H182.216V117.056H200.2C201.864 117.056 203.379 116.629 204.744 115.776C206.109 114.88 207.176 113.728 207.944 112.32C208.755 110.869 209.16 109.355 209.16 107.776ZM182.216 77.504V95.68H198.856C200.52 95.68 201.971 95.2533 203.208 94.4C204.488 93.504 205.491 92.3733 206.216 91.008C206.941 89.6 207.304 88.128 207.304 86.592C207.304 84.928 206.963 83.4133 206.28 82.048C205.597 80.6827 204.637 79.5947 203.4 78.784C202.205 77.9307 200.819 77.504 199.24 77.504H182.216ZM220.047 105.92V86.72H223.247V105.472C223.247 109.611 223.93 112.704 225.295 114.752C226.703 116.757 228.815 117.76 231.631 117.76C233.508 117.76 235.3 117.355 237.007 116.544C238.756 115.691 240.292 114.517 241.615 113.024C242.938 111.488 243.919 109.717 244.559 107.712V86.72H247.759V115.776C247.759 116.288 247.866 116.672 248.079 116.928C248.335 117.184 248.676 117.333 249.103 117.376V120C248.676 120.043 248.335 120.064 248.079 120.064C247.866 120.064 247.674 120.043 247.503 120C246.778 119.915 246.18 119.616 245.711 119.104C245.242 118.549 244.986 117.888 244.943 117.12L244.879 112.128C243.428 114.773 241.423 116.864 238.863 118.4C236.346 119.893 233.615 120.64 230.671 120.64C227.172 120.64 224.527 119.403 222.735 116.928C220.943 114.453 220.047 110.784 220.047 105.92ZM257.93 120V86.72H261.13V120H257.93ZM257.93 79.168V73.28H261.13V79.168H257.93ZM271.436 73.28H274.7V113.408C274.7 114.944 275.02 116.011 275.66 116.608C276.3 117.163 277.132 117.44 278.156 117.44C278.838 117.44 279.542 117.376 280.268 117.248C280.993 117.12 281.633 116.949 282.188 116.736L282.828 119.36C282.102 119.616 281.206 119.851 280.14 120.064C279.073 120.277 278.156 120.384 277.388 120.384C275.596 120.384 274.145 119.851 273.036 118.784C271.969 117.675 271.436 116.203 271.436 114.368V73.28ZM285.438 103.424C285.438 100.309 286.099 97.4507 287.422 94.848C288.745 92.2453 290.558 90.1547 292.862 88.576C295.166 86.9547 297.79 86.144 300.734 86.144C303.635 86.144 306.195 86.912 308.414 88.448C310.675 89.984 312.446 91.8187 313.726 93.952V73.28H316.926V115.776C316.926 116.288 317.033 116.672 317.246 116.928C317.502 117.184 317.843 117.333 318.27 117.376V120C317.587 120.085 317.075 120.107 316.734 120.064C315.966 119.936 315.326 119.573 314.814 118.976C314.302 118.379 314.046 117.739 314.046 117.056V113.344C312.681 115.563 310.846 117.333 308.542 118.656C306.238 119.979 303.87 120.64 301.438 120.64C299.134 120.64 297.001 120.171 295.038 119.232C293.075 118.251 291.369 116.949 289.918 115.328C288.51 113.707 287.401 111.872 286.59 109.824C285.822 107.776 285.438 105.643 285.438 103.424ZM313.726 108.8V97.856C313.129 96.2347 312.169 94.7627 310.846 93.44C309.523 92.0747 308.03 91.008 306.366 90.24C304.702 89.4293 303.059 89.024 301.438 89.024C299.518 89.024 297.769 89.4293 296.19 90.24C294.654 91.0507 293.31 92.1387 292.158 93.504C291.049 94.8693 290.195 96.4267 289.598 98.176C289.001 99.8827 288.702 101.653 288.702 103.488C288.702 105.365 289.043 107.179 289.726 108.928C290.409 110.635 291.347 112.171 292.542 113.536C293.779 114.859 295.187 115.904 296.766 116.672C298.387 117.397 300.137 117.76 302.014 117.76C303.166 117.76 304.382 117.525 305.662 117.056C306.985 116.587 308.222 115.947 309.374 115.136C310.569 114.283 311.55 113.323 312.318 112.256C313.129 111.147 313.598 109.995 313.726 108.8ZM327.117 120V86.72H330.317V120H327.117ZM327.117 79.168V73.28H330.317V79.168H327.117ZM367.567 120H364.367V101.44C364.367 97.1733 363.748 94.0587 362.511 92.096C361.316 90.0907 359.396 89.088 356.751 89.088C354.874 89.088 353.018 89.536 351.183 90.432C349.391 91.328 347.812 92.5653 346.447 94.144C345.124 95.68 344.164 97.4293 343.567 99.392V120H340.367V86.72H343.375V94.656C344.271 92.9493 345.466 91.4773 346.959 90.24C348.452 88.96 350.116 87.9573 351.951 87.232C353.786 86.5067 355.684 86.144 357.647 86.144C359.482 86.144 361.018 86.4853 362.255 87.168C363.535 87.808 364.559 88.7467 365.327 89.984C366.138 91.2213 366.714 92.7573 367.055 94.592C367.396 96.4267 367.567 98.5173 367.567 100.864V120ZM390.682 120.512C388.421 120.512 386.309 120.043 384.346 119.104C382.426 118.165 380.762 116.885 379.354 115.264C377.989 113.6 376.901 111.765 376.09 109.76C375.322 107.712 374.938 105.6 374.938 103.424C374.938 101.163 375.301 98.9867 376.026 96.896C376.794 94.8053 377.861 92.9707 379.226 91.392C380.634 89.7707 382.277 88.4907 384.154 87.552C386.031 86.6133 388.122 86.144 390.426 86.144C393.327 86.144 395.845 86.912 397.978 88.448C400.154 89.9413 401.989 91.776 403.482 93.952V86.72H406.426V120.64C406.426 123.627 405.701 126.144 404.25 128.192C402.799 130.24 400.879 131.755 398.49 132.736C396.101 133.76 393.519 134.272 390.746 134.272C386.863 134.272 383.77 133.568 381.466 132.16C379.205 130.752 377.37 128.896 375.962 126.592L378.138 125.12C379.461 127.339 381.253 128.981 383.514 130.048C385.775 131.115 388.186 131.648 390.746 131.648C393.007 131.648 395.077 131.221 396.954 130.368C398.874 129.557 400.389 128.32 401.498 126.656C402.65 125.035 403.226 123.029 403.226 120.64V113.344C401.903 115.52 400.09 117.269 397.786 118.592C395.525 119.872 393.157 120.512 390.682 120.512ZM391.45 117.76C392.858 117.76 394.223 117.504 395.546 116.992C396.869 116.48 398.085 115.797 399.194 114.944C400.303 114.048 401.221 113.067 401.946 112C402.671 110.933 403.098 109.867 403.226 108.8V97.856C402.586 96.1493 401.605 94.6347 400.282 93.312C399.002 91.9467 397.551 90.9013 395.93 90.176C394.309 89.408 392.645 89.024 390.938 89.024C388.933 89.024 387.141 89.4507 385.562 90.304C383.983 91.1573 382.639 92.288 381.53 93.696C380.463 95.0613 379.631 96.6187 379.034 98.368C378.479 100.075 378.202 101.781 378.202 103.488C378.202 105.408 378.543 107.221 379.226 108.928C379.909 110.635 380.847 112.171 382.042 113.536C383.279 114.859 384.687 115.904 386.266 116.672C387.887 117.397 389.615 117.76 391.45 117.76ZM447.715 118.4C447.502 118.485 447.075 118.699 446.435 119.04C445.795 119.381 444.984 119.701 444.003 120C443.022 120.256 441.934 120.384 440.739 120.384C439.587 120.384 438.499 120.171 437.475 119.744C436.494 119.275 435.704 118.592 435.107 117.696C434.51 116.8 434.211 115.712 434.211 114.432V89.344H429.539V86.72H434.211V75.328H437.411V86.72H445.155V89.344H437.411V113.664C437.496 114.901 437.944 115.84 438.755 116.48C439.566 117.077 440.504 117.376 441.571 117.376C442.894 117.376 444.046 117.163 445.027 116.736C446.008 116.267 446.584 115.968 446.755 115.84L447.715 118.4ZM466.886 120.64C464.539 120.64 462.363 120.192 460.358 119.296C458.353 118.357 456.603 117.099 455.11 115.52C453.659 113.899 452.507 112.043 451.654 109.952C450.843 107.819 450.438 105.579 450.438 103.232C450.438 100.075 451.142 97.216 452.55 94.656C453.958 92.096 455.899 90.048 458.374 88.512C460.849 86.9333 463.622 86.144 466.694 86.144C469.851 86.144 472.646 86.9333 475.078 88.512C477.51 90.0907 479.43 92.1813 480.838 94.784C482.289 97.344 483.014 100.16 483.014 103.232C483.014 103.488 483.014 103.744 483.014 104C483.014 104.256 482.993 104.469 482.95 104.64H453.766C453.937 107.157 454.641 109.44 455.878 111.488C457.115 113.536 458.694 115.157 460.614 116.352C462.577 117.504 464.71 118.08 467.014 118.08C469.318 118.08 471.494 117.483 473.542 116.288C475.59 115.093 477.019 113.557 477.83 111.68L480.646 112.448C480.006 114.027 478.982 115.435 477.574 116.672C476.209 117.909 474.587 118.891 472.71 119.616C470.875 120.299 468.934 120.64 466.886 120.64ZM453.638 102.144H479.942C479.771 99.5413 479.089 97.2373 477.894 95.232C476.699 93.2267 475.121 91.648 473.158 90.496C471.238 89.344 469.105 88.768 466.758 88.768C464.411 88.768 462.278 89.344 460.358 90.496C458.438 91.648 456.881 93.2267 455.686 95.232C454.491 97.2373 453.809 99.5413 453.638 102.144ZM487.303 110.4C487.303 108.395 487.9 106.667 489.095 105.216C490.289 103.723 491.932 102.571 494.023 101.76C496.113 100.907 498.524 100.48 501.255 100.48C502.961 100.48 504.732 100.629 506.567 100.928C508.401 101.227 510.044 101.632 511.495 102.144V99.008C511.495 95.936 510.599 93.4827 508.807 91.648C507.057 89.8133 504.625 88.896 501.51 88.896C499.847 88.896 498.119 89.2373 496.327 89.92C494.535 90.6027 492.7 91.584 490.823 92.864L489.479 90.56C491.655 89.1093 493.745 88.0213 495.751 87.296C497.799 86.528 499.825 86.144 501.831 86.144C505.799 86.144 508.935 87.3173 511.239 89.664C513.543 92.0107 514.695 95.2107 514.695 99.264V115.776C514.695 116.288 514.801 116.672 515.015 116.928C515.271 117.184 515.633 117.333 516.103 117.376V120C515.719 120.043 515.399 120.064 515.143 120.064C514.887 120.064 514.673 120.064 514.503 120.064C513.692 119.936 513.052 119.595 512.583 119.04C512.156 118.485 511.921 117.867 511.879 117.184V114.56C510.343 116.48 508.359 117.973 505.927 119.04C503.537 120.107 501.02 120.64 498.375 120.64C496.284 120.64 494.385 120.192 492.679 119.296C491.015 118.4 489.692 117.184 488.711 115.648C487.772 114.069 487.303 112.32 487.303 110.4ZM510.215 113.152C510.641 112.597 510.961 112.064 511.175 111.552C511.388 111.04 511.495 110.571 511.495 110.144V104.64C509.959 104.043 508.359 103.595 506.695 103.296C505.031 102.997 503.324 102.848 501.575 102.848C498.247 102.848 495.537 103.509 493.447 104.832C491.399 106.155 490.375 107.947 490.375 110.208C490.375 111.616 490.737 112.917 491.463 114.112C492.188 115.307 493.191 116.267 494.47 116.992C495.793 117.717 497.308 118.08 499.015 118.08C501.404 118.08 503.601 117.632 505.607 116.736C507.655 115.797 509.191 114.603 510.215 113.152ZM573.326 120H570.126V101.44C570.126 97.216 569.464 94.1013 568.142 92.096C566.862 90.0907 564.878 89.088 562.19 89.088C559.459 89.088 557.027 90.0693 554.894 92.032C552.803 93.952 551.331 96.4267 550.478 99.456V120H547.278V101.44C547.278 97.1733 546.638 94.0587 545.358 92.096C544.078 90.0907 542.094 89.088 539.406 89.088C536.675 89.088 534.243 90.048 532.11 91.968C530.019 93.8453 528.526 96.32 527.63 99.392V120H524.43V86.72H527.438V94.656C528.846 91.9253 530.659 89.8347 532.878 88.384C535.096 86.8907 537.528 86.144 540.174 86.144C542.947 86.144 545.208 86.976 546.958 88.64C548.75 90.2613 549.816 92.4373 550.158 95.168C551.736 92.1813 553.614 89.9413 555.79 88.448C557.966 86.912 560.44 86.144 563.214 86.144C565.048 86.144 566.584 86.4853 567.822 87.168C569.102 87.808 570.147 88.768 570.958 90.048C571.811 91.2853 572.408 92.8213 572.75 94.656C573.134 96.4907 573.326 98.56 573.326 100.864V120ZM192.84 178.4C192.627 178.485 192.2 178.699 191.56 179.04C190.92 179.381 190.109 179.701 189.128 180C188.147 180.256 187.059 180.384 185.864 180.384C184.712 180.384 183.624 180.171 182.6 179.744C181.619 179.275 180.829 178.592 180.232 177.696C179.635 176.8 179.336 175.712 179.336 174.432V149.344H174.664V146.72H179.336V135.328H182.536V146.72H190.28V149.344H182.536V173.664C182.621 174.901 183.069 175.84 183.88 176.48C184.691 177.077 185.629 177.376 186.696 177.376C188.019 177.376 189.171 177.163 190.152 176.736C191.133 176.267 191.709 175.968 191.88 175.84L192.84 178.4ZM225.692 180H222.492V161.44C222.492 157.344 221.788 154.272 220.38 152.224C218.972 150.133 216.924 149.088 214.236 149.088C212.487 149.088 210.737 149.536 208.988 150.432C207.239 151.328 205.724 152.565 204.444 154.144C203.164 155.68 202.247 157.429 201.692 159.392V180H198.492V133.28H201.692V154.656C203.057 152.053 204.956 149.984 207.388 148.448C209.82 146.912 212.401 146.144 215.132 146.144C217.009 146.144 218.609 146.485 219.932 147.168C221.255 147.851 222.343 148.832 223.196 150.112C224.049 151.392 224.668 152.928 225.052 154.72C225.479 156.512 225.692 158.56 225.692 160.864V180ZM232.615 170.4C232.615 168.395 233.212 166.667 234.407 165.216C235.602 163.723 237.244 162.571 239.335 161.76C241.426 160.907 243.836 160.48 246.567 160.48C248.274 160.48 250.044 160.629 251.879 160.928C253.714 161.227 255.356 161.632 256.807 162.144V159.008C256.807 155.936 255.911 153.483 254.119 151.648C252.37 149.813 249.938 148.896 246.823 148.896C245.159 148.896 243.431 149.237 241.639 149.92C239.847 150.603 238.012 151.584 236.135 152.864L234.791 150.56C236.967 149.109 239.058 148.021 241.063 147.296C243.111 146.528 245.138 146.144 247.143 146.144C251.111 146.144 254.247 147.317 256.551 149.664C258.855 152.011 260.007 155.211 260.007 159.264V175.776C260.007 176.288 260.114 176.672 260.327 176.928C260.583 177.184 260.946 177.333 261.415 177.376V180C261.031 180.043 260.711 180.064 260.455 180.064C260.199 180.064 259.986 180.064 259.815 180.064C259.004 179.936 258.364 179.595 257.895 179.04C257.468 178.485 257.234 177.867 257.191 177.184V174.56C255.655 176.48 253.671 177.973 251.239 179.04C248.85 180.107 246.332 180.64 243.687 180.64C241.596 180.64 239.698 180.192 237.991 179.296C236.327 178.4 235.004 177.184 234.023 175.648C233.084 174.069 232.615 172.32 232.615 170.4ZM255.527 173.152C255.954 172.597 256.274 172.064 256.487 171.552C256.7 171.04 256.807 170.571 256.807 170.144V164.64C255.271 164.043 253.671 163.595 252.007 163.296C250.343 162.997 248.636 162.848 246.887 162.848C243.559 162.848 240.85 163.509 238.759 164.832C236.711 166.155 235.687 167.947 235.687 170.208C235.687 171.616 236.05 172.917 236.775 174.112C237.5 175.307 238.503 176.267 239.783 176.992C241.106 177.717 242.62 178.08 244.327 178.08C246.716 178.08 248.914 177.632 250.919 176.736C252.967 175.797 254.503 174.603 255.527 173.152ZM284.34 178.4C284.127 178.485 283.7 178.699 283.06 179.04C282.42 179.381 281.609 179.701 280.628 180C279.647 180.256 278.559 180.384 277.364 180.384C276.212 180.384 275.124 180.171 274.1 179.744C273.119 179.275 272.329 178.592 271.732 177.696C271.135 176.8 270.836 175.712 270.836 174.432V149.344H266.164V146.72H270.836V135.328H274.036V146.72H281.78V149.344H274.036V173.664C274.121 174.901 274.569 175.84 275.38 176.48C276.191 177.077 277.129 177.376 278.196 177.376C279.519 177.376 280.671 177.163 281.652 176.736C282.633 176.267 283.209 175.968 283.38 175.84L284.34 178.4ZM304.126 163.424C304.126 160.309 304.787 157.451 306.11 154.848C307.432 152.245 309.246 150.155 311.55 148.576C313.854 146.955 316.478 146.144 319.422 146.144C322.323 146.144 324.883 146.912 327.102 148.448C329.363 149.984 331.134 151.819 332.414 153.952V133.28H335.614V175.776C335.614 176.288 335.72 176.672 335.934 176.928C336.19 177.184 336.531 177.333 336.958 177.376V180C336.275 180.085 335.763 180.107 335.422 180.064C334.654 179.936 334.014 179.573 333.502 178.976C332.99 178.379 332.734 177.739 332.734 177.056V173.344C331.368 175.563 329.534 177.333 327.23 178.656C324.926 179.979 322.558 180.64 320.126 180.64C317.822 180.64 315.688 180.171 313.726 179.232C311.763 178.251 310.056 176.949 308.606 175.328C307.198 173.707 306.088 171.872 305.278 169.824C304.51 167.776 304.126 165.643 304.126 163.424ZM332.414 168.8V157.856C331.816 156.235 330.856 154.763 329.534 153.44C328.211 152.075 326.718 151.008 325.054 150.24C323.39 149.429 321.747 149.024 320.126 149.024C318.206 149.024 316.456 149.429 314.878 150.24C313.342 151.051 311.998 152.139 310.845 153.504C309.736 154.869 308.883 156.427 308.286 158.176C307.688 159.883 307.39 161.653 307.39 163.488C307.39 165.365 307.731 167.179 308.414 168.928C309.096 170.635 310.035 172.171 311.23 173.536C312.467 174.859 313.875 175.904 315.454 176.672C317.075 177.397 318.824 177.76 320.702 177.76C321.854 177.76 323.07 177.525 324.35 177.056C325.672 176.587 326.91 175.947 328.062 175.136C329.256 174.283 330.238 173.323 331.006 172.256C331.816 171.147 332.286 169.995 332.414 168.8ZM361.549 149.6C358.562 149.685 355.938 150.581 353.677 152.288C351.458 153.952 349.901 156.256 349.005 159.2V180H345.805V146.72H348.877V154.912C350.029 152.565 351.565 150.667 353.485 149.216C355.405 147.723 357.431 146.869 359.565 146.656C359.991 146.613 360.375 146.592 360.717 146.592C361.058 146.592 361.335 146.592 361.549 146.592V149.6ZM367.617 180V146.72H370.817V180H367.617ZM367.617 139.168V133.28H370.817V139.168H367.617ZM391.107 180L377.219 146.72H380.611L392.835 176.608L405.123 146.72H408.323L394.435 180H391.107ZM427.699 180.64C425.352 180.64 423.176 180.192 421.171 179.296C419.165 178.357 417.416 177.099 415.923 175.52C414.472 173.899 413.32 172.043 412.467 169.952C411.656 167.819 411.251 165.579 411.251 163.232C411.251 160.075 411.955 157.216 413.363 154.656C414.771 152.096 416.712 150.048 419.187 148.512C421.661 146.933 424.435 146.144 427.507 146.144C430.664 146.144 433.459 146.933 435.891 148.512C438.323 150.091 440.243 152.181 441.651 154.784C443.101 157.344 443.826 160.16 443.826 163.232C443.826 163.488 443.826 163.744 443.826 164C443.826 164.256 443.805 164.469 443.763 164.64H414.579C414.749 167.157 415.453 169.44 416.691 171.488C417.928 173.536 419.507 175.157 421.427 176.352C423.389 177.504 425.523 178.08 427.827 178.08C430.131 178.08 432.307 177.483 434.355 176.288C436.403 175.093 437.832 173.557 438.643 171.68L441.458 172.448C440.819 174.027 439.795 175.435 438.387 176.672C437.021 177.909 435.4 178.891 433.523 179.616C431.688 180.299 429.747 180.64 427.699 180.64ZM414.451 162.144H440.755C440.584 159.541 439.901 157.237 438.707 155.232C437.512 153.227 435.933 151.648 433.971 150.496C432.051 149.344 429.917 148.768 427.571 148.768C425.224 148.768 423.091 149.344 421.171 150.496C419.251 151.648 417.693 153.227 416.499 155.232C415.304 157.237 414.621 159.541 414.451 162.144ZM461.363 180.64C458.718 180.64 456.264 180.192 454.003 179.296C451.742 178.4 449.758 177.035 448.051 175.2L449.523 172.96C451.358 174.709 453.214 175.989 455.091 176.8C456.968 177.568 459.016 177.952 461.235 177.952C464.094 177.952 466.398 177.355 468.147 176.16C469.939 174.965 470.835 173.301 470.835 171.168C470.835 169.717 470.408 168.608 469.555 167.84C468.744 167.029 467.55 166.389 465.971 165.92C464.435 165.408 462.558 164.875 460.339 164.32C458.078 163.723 456.158 163.104 454.579 162.464C453.043 161.824 451.891 160.992 451.123 159.968C450.355 158.944 449.971 157.557 449.971 155.808C449.971 153.632 450.504 151.84 451.571 150.432C452.68 148.981 454.152 147.915 455.987 147.232C457.864 146.507 459.934 146.144 462.195 146.144C464.798 146.144 467.059 146.571 468.979 147.424C470.942 148.277 472.435 149.408 473.459 150.816L471.731 152.864C470.664 151.499 469.278 150.496 467.571 149.856C465.864 149.173 463.987 148.832 461.939 148.832C460.403 148.832 458.952 149.045 457.587 149.472C456.222 149.899 455.112 150.603 454.259 151.584C453.448 152.523 453.043 153.803 453.043 155.424C453.043 156.704 453.342 157.707 453.939 158.432C454.579 159.157 455.518 159.755 456.755 160.224C457.992 160.651 459.528 161.12 461.363 161.632C463.966 162.272 466.206 162.933 468.083 163.616C469.96 164.299 471.411 165.195 472.435 166.304C473.459 167.371 473.971 168.885 473.971 170.848C473.971 173.877 472.819 176.267 470.515 178.016C468.211 179.765 465.16 180.64 461.363 180.64Z" fill="black"/>
<defs>
<linearGradient id="paint0_linear_979_2754" x1="67.1651" y1="-196.082" x2="49.3086" y2="579.512" gradientUnits="userSpaceOnUse">
<stop offset="0.0581783" stop-color="white"/>
<stop offset="0.829856" stop-color="#0A5B9A"/>
</linearGradient>
<linearGradient id="paint1_linear_979_2754" x1="173" y1="359.012" x2="627.5" y2="359.012" gradientUnits="userSpaceOnUse">
<stop stop-color="#F5A11D"/>
<stop offset="1" stop-color="#0A5B9A" stop-opacity="0.78"/>
</linearGradient>
<linearGradient id="paint2_linear_979_2754" x1="173" y1="267" x2="614" y2="267" gradientUnits="userSpaceOnUse">
<stop stop-color="#0A5B9A"/>
<stop offset="0.425043" stop-color="#A99C75"/>
<stop offset="1" stop-color="#F2BB64"/>
</linearGradient>
</defs>
</svg>
