<svg width="81" height="15" viewBox="0 0 81 15" fill="none" xmlns="http://www.w3.org/2000/svg">
<path d="M0.96 11V2.48H4.668C5.052 2.48 5.404 2.56 5.724 2.72C6.044 2.88 6.32 3.092 6.552 3.356C6.792 3.62 6.976 3.916 7.104 4.244C7.24 4.572 7.308 4.908 7.308 5.252C7.308 5.628 7.24 5.988 7.104 6.332C6.968 6.676 6.772 6.972 6.516 7.22C6.268 7.468 5.976 7.648 5.64 7.76L7.644 11H6.132L4.284 8.036H2.304V11H0.96ZM2.304 6.848H4.656C4.904 6.848 5.124 6.776 5.316 6.632C5.508 6.488 5.66 6.296 5.772 6.056C5.884 5.808 5.94 5.54 5.94 5.252C5.94 4.956 5.876 4.692 5.748 4.46C5.62 4.22 5.452 4.028 5.244 3.884C5.044 3.74 4.824 3.668 4.584 3.668H2.304V6.848ZM11.3704 11.12C10.8824 11.12 10.4384 11.036 10.0384 10.868C9.64638 10.692 9.30638 10.456 9.01838 10.16C8.73038 9.856 8.50638 9.512 8.34638 9.128C8.19438 8.736 8.11838 8.32 8.11838 7.88C8.11838 7.288 8.25438 6.748 8.52637 6.26C8.79838 5.764 9.17838 5.368 9.66638 5.072C10.1544 4.768 10.7264 4.616 11.3824 4.616C12.0384 4.616 12.6024 4.768 13.0744 5.072C13.5544 5.368 13.9264 5.76 14.1904 6.248C14.4544 6.736 14.5864 7.26 14.5864 7.82C14.5864 7.916 14.5824 8.008 14.5744 8.096C14.5664 8.176 14.5584 8.244 14.5504 8.3H9.52238C9.54638 8.668 9.64638 8.992 9.82238 9.272C10.0064 9.544 10.2384 9.76 10.5184 9.92C10.7984 10.072 11.0984 10.148 11.4184 10.148C11.7704 10.148 12.1024 10.06 12.4144 9.884C12.7344 9.708 12.9504 9.476 13.0624 9.188L14.1904 9.512C14.0544 9.816 13.8464 10.092 13.5664 10.34C13.2944 10.58 12.9704 10.772 12.5944 10.916C12.2184 11.052 11.8104 11.12 11.3704 11.12ZM9.48638 7.424H13.2784C13.2544 7.064 13.1504 6.748 12.9664 6.476C12.7904 6.196 12.5624 5.98 12.2824 5.828C12.0104 5.668 11.7064 5.588 11.3704 5.588C11.0424 5.588 10.7384 5.668 10.4584 5.828C10.1864 5.98 9.96238 6.196 9.78638 6.476C9.61038 6.748 9.51038 7.064 9.48638 7.424ZM15.2071 9.164C15.2071 8.764 15.3191 8.416 15.5431 8.12C15.7751 7.816 16.0911 7.584 16.4911 7.424C16.8911 7.256 17.3551 7.172 17.8831 7.172C18.1631 7.172 18.4471 7.192 18.7351 7.232C19.0311 7.272 19.2911 7.336 19.5151 7.424V7.028C19.5151 6.588 19.3831 6.244 19.1191 5.996C18.8551 5.748 18.4751 5.624 17.9791 5.624C17.6271 5.624 17.2951 5.688 16.9831 5.816C16.6711 5.936 16.3391 6.108 15.9871 6.332L15.5431 5.444C15.9591 5.164 16.3751 4.956 16.7911 4.82C17.2151 4.684 17.6591 4.616 18.1231 4.616C18.9631 4.616 19.6231 4.84 20.1031 5.288C20.5911 5.728 20.8351 6.356 20.8351 7.172V9.512C20.8351 9.664 20.8591 9.772 20.9071 9.836C20.9631 9.9 21.0551 9.936 21.1831 9.944V11C21.0631 11.024 20.9551 11.04 20.8591 11.048C20.7631 11.056 20.6831 11.06 20.6191 11.06C20.3391 11.06 20.1271 10.992 19.9831 10.856C19.8391 10.72 19.7551 10.56 19.7311 10.376L19.6951 10.016C19.4231 10.368 19.0751 10.64 18.6511 10.832C18.2271 11.024 17.7991 11.12 17.3671 11.12C16.9511 11.12 16.5791 11.036 16.2511 10.868C15.9231 10.692 15.6671 10.456 15.4831 10.16C15.2991 9.864 15.2071 9.532 15.2071 9.164ZM19.2031 9.548C19.2991 9.444 19.3751 9.34 19.4311 9.236C19.4871 9.132 19.5151 9.04 19.5151 8.96V8.24C19.2911 8.152 19.0551 8.088 18.8071 8.048C18.5591 8 18.3151 7.976 18.0751 7.976C17.5951 7.976 17.2031 8.072 16.8991 8.264C16.6031 8.456 16.4551 8.72 16.4551 9.056C16.4551 9.24 16.5031 9.416 16.5991 9.584C16.7031 9.752 16.8471 9.888 17.0311 9.992C17.2231 10.096 17.4591 10.148 17.7391 10.148C18.0271 10.148 18.3031 10.092 18.5671 9.98C18.8311 9.868 19.0431 9.724 19.2031 9.548ZM22.0405 7.868C22.0405 7.268 22.1605 6.724 22.4005 6.236C22.6485 5.74 22.9845 5.348 23.4085 5.06C23.8325 4.764 24.3205 4.616 24.8725 4.616C25.3525 4.616 25.7845 4.74 26.1685 4.988C26.5605 5.236 26.8645 5.544 27.0805 5.912V2.24H28.4005V9.512C28.4005 9.664 28.4285 9.772 28.4845 9.836C28.5405 9.9 28.6325 9.936 28.7605 9.944V11C28.5125 11.04 28.3205 11.06 28.1845 11.06C27.9365 11.06 27.7245 10.988 27.5485 10.844C27.3805 10.7 27.2925 10.528 27.2845 10.328L27.2725 9.86C27.0325 10.26 26.7085 10.572 26.3005 10.796C25.8925 11.012 25.4685 11.12 25.0285 11.12C24.5965 11.12 24.1965 11.036 23.8285 10.868C23.4685 10.7 23.1525 10.464 22.8805 10.16C22.6165 9.856 22.4085 9.508 22.2565 9.116C22.1125 8.724 22.0405 8.308 22.0405 7.868ZM27.0805 8.744V7.1C26.9925 6.844 26.8485 6.616 26.6485 6.416C26.4565 6.208 26.2365 6.044 25.9885 5.924C25.7485 5.804 25.5085 5.744 25.2685 5.744C24.9885 5.744 24.7325 5.804 24.5005 5.924C24.2765 6.044 24.0805 6.204 23.9125 6.404C23.7525 6.604 23.6285 6.832 23.5405 7.088C23.4525 7.344 23.4085 7.612 23.4085 7.892C23.4085 8.18 23.4565 8.452 23.5525 8.708C23.6485 8.956 23.7845 9.18 23.9605 9.38C24.1445 9.572 24.3525 9.724 24.5845 9.836C24.8245 9.94 25.0845 9.992 25.3645 9.992C25.5405 9.992 25.7165 9.96 25.8925 9.896C26.0765 9.832 26.2485 9.744 26.4085 9.632C26.5765 9.52 26.7165 9.388 26.8285 9.236C26.9485 9.084 27.0325 8.92 27.0805 8.744ZM42.642 11H41.322V7.484C41.322 6.9 41.226 6.472 41.034 6.2C40.842 5.928 40.562 5.792 40.194 5.792C39.826 5.792 39.482 5.932 39.162 6.212C38.85 6.484 38.63 6.84 38.502 7.28V11H37.182V7.484C37.182 6.9 37.086 6.472 36.894 6.2C36.702 5.928 36.426 5.792 36.066 5.792C35.698 5.792 35.354 5.928 35.034 6.2C34.722 6.472 34.498 6.828 34.362 7.268V11H33.042V4.724H34.242V5.984C34.49 5.544 34.814 5.208 35.214 4.976C35.622 4.736 36.086 4.616 36.606 4.616C37.126 4.616 37.534 4.752 37.83 5.024C38.134 5.296 38.322 5.636 38.394 6.044C38.666 5.58 38.998 5.228 39.39 4.988C39.79 4.74 40.246 4.616 40.758 4.616C41.126 4.616 41.434 4.684 41.682 4.82C41.93 4.956 42.122 5.144 42.258 5.384C42.394 5.616 42.49 5.888 42.546 6.2C42.61 6.504 42.642 6.828 42.642 7.172V11ZM46.9831 11.12C46.4871 11.12 46.0431 11.036 45.6511 10.868C45.2591 10.692 44.9191 10.452 44.6311 10.148C44.3511 9.844 44.1351 9.5 43.9831 9.116C43.8311 8.724 43.7551 8.308 43.7551 7.868C43.7551 7.428 43.8311 7.012 43.9831 6.62C44.1351 6.228 44.3511 5.884 44.6311 5.588C44.9191 5.284 45.2591 5.048 45.6511 4.88C46.0511 4.704 46.4951 4.616 46.9831 4.616C47.4711 4.616 47.9111 4.704 48.3031 4.88C48.7031 5.048 49.0431 5.284 49.3231 5.588C49.6111 5.884 49.8311 6.228 49.9831 6.62C50.1351 7.012 50.2111 7.428 50.2111 7.868C50.2111 8.308 50.1351 8.724 49.9831 9.116C49.8311 9.5 49.6111 9.844 49.3231 10.148C49.0431 10.452 48.7031 10.692 48.3031 10.868C47.9111 11.036 47.4711 11.12 46.9831 11.12ZM45.1111 7.88C45.1111 8.28 45.1951 8.64 45.3631 8.96C45.5311 9.28 45.7551 9.532 46.0351 9.716C46.3151 9.9 46.6311 9.992 46.9831 9.992C47.3271 9.992 47.6391 9.9 47.9191 9.716C48.2071 9.524 48.4351 9.268 48.6031 8.948C48.7711 8.62 48.8551 8.26 48.8551 7.868C48.8551 7.468 48.7711 7.108 48.6031 6.788C48.4351 6.468 48.2071 6.216 47.9191 6.032C47.6391 5.84 47.3271 5.744 46.9831 5.744C46.6311 5.744 46.3151 5.84 46.0351 6.032C45.7551 6.224 45.5311 6.48 45.3631 6.8C45.1951 7.112 45.1111 7.472 45.1111 7.88ZM54.9098 5.864C54.3978 5.872 53.9418 5.988 53.5418 6.212C53.1498 6.436 52.8698 6.752 52.7018 7.16V11H51.3818V4.724H52.6058V6.128C52.8218 5.696 53.1058 5.352 53.4578 5.096C53.8098 4.832 54.1818 4.688 54.5738 4.664C54.6538 4.664 54.7178 4.664 54.7658 4.664C54.8218 4.664 54.8698 4.668 54.9098 4.676V5.864ZM58.5969 11.12C58.1089 11.12 57.6649 11.036 57.2649 10.868C56.8729 10.692 56.5329 10.456 56.2449 10.16C55.9569 9.856 55.7329 9.512 55.5729 9.128C55.4209 8.736 55.3449 8.32 55.3449 7.88C55.3449 7.288 55.4809 6.748 55.7529 6.26C56.0249 5.764 56.4049 5.368 56.8929 5.072C57.3809 4.768 57.9529 4.616 58.6089 4.616C59.2649 4.616 59.8289 4.768 60.3009 5.072C60.7809 5.368 61.1529 5.76 61.4169 6.248C61.6809 6.736 61.8129 7.26 61.8129 7.82C61.8129 7.916 61.8089 8.008 61.8009 8.096C61.7929 8.176 61.7849 8.244 61.7769 8.3H56.7489C56.7729 8.668 56.8729 8.992 57.0489 9.272C57.2329 9.544 57.4649 9.76 57.7449 9.92C58.0249 10.072 58.3249 10.148 58.6449 10.148C58.9969 10.148 59.3289 10.06 59.6409 9.884C59.9609 9.708 60.1769 9.476 60.2889 9.188L61.4169 9.512C61.2809 9.816 61.0729 10.092 60.7929 10.34C60.5209 10.58 60.1969 10.772 59.8209 10.916C59.4449 11.052 59.0369 11.12 58.5969 11.12ZM56.7129 7.424H60.5049C60.4809 7.064 60.3769 6.748 60.1929 6.476C60.0169 6.196 59.7889 5.98 59.5089 5.828C59.2369 5.668 58.9329 5.588 58.5969 5.588C58.2689 5.588 57.9649 5.668 57.6849 5.828C57.4129 5.98 57.1889 6.196 57.0129 6.476C56.8369 6.748 56.7369 7.064 56.7129 7.424Z" fill="#0A5B9A"/>
<path d="M73 12L66.0718 3.75L79.9282 3.75L73 12Z" fill="#FF8900" fill-opacity="0.52"/>
</svg>
