<svg width="341" height="257" viewBox="0 0 341 257" fill="none" xmlns="http://www.w3.org/2000/svg">
<path d="M77.1042 15.4367C26.6766 14.2464 -24.1091 81.72 59.6384 107.307C125.33 127.377 235.134 59.0074 297.883 116C360.632 172.993 305.58 242.874 247.383 241.5" stroke="url(#paint0_linear_755_4917)" stroke-opacity="0.05" stroke-width="29.6616" stroke-linecap="round"/>
<path d="M89.7695 190.595C96.4839 179.022 129.26 162.819 206.652 190.595C284.043 218.371 321.59 192.451 330.69 176.018" stroke="url(#paint1_linear_755_4917)" stroke-width="1.59023"/>
<path d="M94.7904 162.589V114.416H116.095C118.312 114.416 120.347 114.868 122.202 115.773C124.102 116.677 125.73 117.899 127.087 119.437C128.489 120.974 129.552 122.693 130.276 124.593C131.045 126.493 131.429 128.438 131.429 130.428C131.429 132.464 131.068 134.431 130.344 136.331C129.665 138.186 128.67 139.814 127.358 141.216C126.047 142.619 124.509 143.704 122.745 144.473L133.736 162.589H123.423L113.517 146.441H104.154V162.589H94.7904ZM104.154 138.231H115.892C117.068 138.231 118.108 137.892 119.013 137.213C119.918 136.489 120.641 135.54 121.184 134.364C121.727 133.187 121.998 131.876 121.998 130.428C121.998 128.89 121.682 127.556 121.048 126.425C120.415 125.249 119.601 124.322 118.606 123.643C117.656 122.965 116.616 122.625 115.485 122.625H104.154V138.231ZM154.326 163.268C151.476 163.268 148.898 162.793 146.591 161.843C144.284 160.848 142.317 159.513 140.688 157.84C139.06 156.121 137.793 154.176 136.889 152.005C136.029 149.788 135.6 147.459 135.6 145.016C135.6 141.623 136.346 138.525 137.839 135.721C139.377 132.916 141.548 130.677 144.352 129.003C147.202 127.285 150.549 126.425 154.394 126.425C158.284 126.425 161.609 127.285 164.368 129.003C167.127 130.677 169.231 132.916 170.678 135.721C172.171 138.48 172.917 141.465 172.917 144.677C172.917 145.22 172.894 145.785 172.849 146.373C172.804 146.916 172.759 147.368 172.713 147.73H145.234C145.415 149.539 145.935 151.122 146.795 152.479C147.699 153.836 148.83 154.877 150.187 155.601C151.59 156.279 153.082 156.618 154.665 156.618C156.475 156.618 158.171 156.189 159.754 155.329C161.383 154.424 162.491 153.248 163.079 151.801L170.882 153.972C170.022 155.781 168.778 157.387 167.15 158.79C165.567 160.192 163.689 161.3 161.518 162.114C159.347 162.883 156.95 163.268 154.326 163.268ZM145.031 141.963H163.622C163.441 140.153 162.92 138.593 162.061 137.281C161.247 135.924 160.161 134.884 158.804 134.16C157.447 133.391 155.932 133.007 154.258 133.007C152.63 133.007 151.137 133.391 149.78 134.16C148.468 134.884 147.383 135.924 146.523 137.281C145.709 138.593 145.212 140.153 145.031 141.963ZM191.551 163.268C188.52 163.268 185.625 162.77 182.866 161.775C180.107 160.78 177.732 159.31 175.742 157.365L178.999 151.462C181.125 153.181 183.205 154.447 185.241 155.261C187.322 156.076 189.312 156.483 191.212 156.483C192.976 156.483 194.378 156.166 195.418 155.533C196.504 154.899 197.047 153.95 197.047 152.683C197.047 151.824 196.753 151.168 196.165 150.715C195.577 150.218 194.717 149.788 193.586 149.426C192.501 149.064 191.166 148.657 189.583 148.205C186.96 147.345 184.766 146.509 183.002 145.694C181.238 144.88 179.903 143.863 178.999 142.641C178.139 141.375 177.709 139.769 177.709 137.824C177.709 135.472 178.298 133.459 179.474 131.785C180.695 130.066 182.369 128.732 184.494 127.782C186.666 126.832 189.199 126.357 192.094 126.357C194.627 126.357 197.024 126.764 199.286 127.579C201.547 128.347 203.606 129.614 205.46 131.378L201.796 137.145C199.987 135.743 198.268 134.725 196.64 134.092C195.011 133.414 193.36 133.074 191.687 133.074C190.737 133.074 189.832 133.187 188.973 133.414C188.158 133.64 187.48 134.024 186.937 134.567C186.44 135.065 186.191 135.788 186.191 136.738C186.191 137.598 186.417 138.276 186.869 138.774C187.367 139.226 188.091 139.633 189.04 139.995C190.036 140.357 191.234 140.764 192.636 141.216C195.486 142.031 197.884 142.867 199.829 143.727C201.819 144.586 203.312 145.649 204.307 146.916C205.302 148.137 205.799 149.833 205.799 152.005C205.799 155.533 204.51 158.292 201.932 160.282C199.354 162.272 195.893 163.268 191.551 163.268ZM211.644 149.291V127.036H220.736V147.323C220.736 150.037 221.233 152.095 222.229 153.497C223.224 154.854 224.694 155.533 226.639 155.533C227.815 155.533 228.968 155.307 230.099 154.854C231.275 154.357 232.338 153.633 233.288 152.683C234.283 151.733 235.12 150.534 235.799 149.087V127.036H244.89V152.412C244.89 153.362 245.049 154.04 245.365 154.447C245.727 154.854 246.293 155.103 247.062 155.193V162.589C246.157 162.725 245.388 162.815 244.755 162.861C244.167 162.951 243.624 162.996 243.126 162.996C241.498 162.996 240.164 162.634 239.123 161.911C238.128 161.142 237.54 160.101 237.359 158.79L237.156 155.94C235.572 158.337 233.537 160.169 231.049 161.436C228.561 162.657 225.825 163.268 222.839 163.268C219.175 163.268 216.394 162.092 214.494 159.739C212.594 157.342 211.644 153.859 211.644 149.291ZM253.858 113.059H262.95V151.19C262.95 152.819 263.221 153.927 263.764 154.515C264.307 155.058 265.053 155.329 266.003 155.329C266.727 155.329 267.473 155.239 268.242 155.058C269.011 154.877 269.689 154.651 270.278 154.379L271.499 161.3C270.278 161.888 268.853 162.34 267.224 162.657C265.596 162.974 264.126 163.132 262.814 163.132C259.964 163.132 257.748 162.386 256.165 160.893C254.627 159.355 253.858 157.184 253.858 154.379V113.059ZM296.367 160.757C295.598 161.074 294.671 161.436 293.586 161.843C292.5 162.25 291.324 162.566 290.057 162.793C288.836 163.064 287.592 163.2 286.326 163.2C284.652 163.2 283.114 162.906 281.712 162.318C280.31 161.73 279.179 160.802 278.319 159.536C277.505 158.224 277.098 156.528 277.098 154.447V134.024H272.416V127.036H277.098V115.501H286.19V127.036H293.653V134.024H286.19V151.394C286.235 152.615 286.574 153.497 287.208 154.04C287.841 154.583 288.633 154.854 289.582 154.854C290.532 154.854 291.46 154.696 292.364 154.379C293.269 154.063 293.993 153.791 294.535 153.565L296.367 160.757Z" fill="url(#paint2_linear_755_4917)"/>
<path d="M110.667 56.0159C110.667 57.1919 110.373 58.2549 109.785 59.2048C109.22 60.1321 108.44 60.8784 107.444 61.4439C106.472 61.9867 105.386 62.2581 104.188 62.2581H92.9246V38.1713H104.154C105.285 38.1713 106.257 38.4766 107.071 39.0873C107.908 39.6753 108.541 40.4443 108.971 41.3942C109.423 42.3215 109.65 43.294 109.65 44.3117C109.65 45.5104 109.344 46.6299 108.734 47.6703C108.123 48.6881 107.275 49.4344 106.189 49.9094C107.569 50.3165 108.654 51.0854 109.446 52.2163C110.26 53.3245 110.667 54.591 110.667 56.0159ZM108.937 55.7784C108.937 54.9189 108.734 54.1161 108.327 53.3697C107.942 52.6234 107.411 52.0127 106.732 51.5378C106.054 51.0628 105.285 50.8253 104.425 50.8253H94.6547V60.6975H104.188C105.07 60.6975 105.873 60.4713 106.596 60.019C107.32 59.5441 107.885 58.9334 108.293 58.1871C108.722 57.4181 108.937 56.6152 108.937 55.7784ZM94.6547 39.7319V49.3666H103.475C104.357 49.3666 105.126 49.1404 105.782 48.6881C106.461 48.2131 106.992 47.6138 107.377 46.89C107.761 46.1437 107.953 45.3634 107.953 44.5492C107.953 43.6672 107.772 42.8643 107.411 42.1405C107.049 41.4168 106.54 40.8401 105.884 40.4104C105.251 39.958 104.516 39.7319 103.679 39.7319H94.6547ZM114.708 54.7946V44.6171H116.404V54.5571C116.404 56.7509 116.766 58.3906 117.49 59.4762C118.236 60.5392 119.356 61.0707 120.849 61.0707C121.844 61.0707 122.794 60.8558 123.698 60.4261C124.626 59.9738 125.44 59.3518 126.141 58.5602C126.842 57.746 127.362 56.8074 127.701 55.7445V44.6171H129.398V60.019C129.398 60.2904 129.454 60.494 129.567 60.6297C129.703 60.7654 129.884 60.8445 130.11 60.8671V62.2581C129.884 62.2807 129.703 62.292 129.567 62.292C129.454 62.292 129.352 62.2807 129.262 62.2581C128.877 62.2128 128.561 62.0545 128.312 61.7831C128.063 61.4891 127.928 61.1385 127.905 60.7314L127.871 58.0853C127.102 59.4875 126.039 60.5957 124.682 61.4099C123.348 62.2015 121.9 62.5973 120.34 62.5973C118.485 62.5973 117.083 61.9414 116.133 60.6297C115.183 59.3179 114.708 57.3729 114.708 54.7946ZM134.789 62.2581V44.6171H136.485V62.2581H134.789ZM134.789 40.6139V37.4928H136.485V40.6139H134.789ZM141.948 37.4928H143.678V58.7638C143.678 59.578 143.848 60.1434 144.187 60.46C144.526 60.754 144.967 60.9011 145.51 60.9011C145.872 60.9011 146.245 60.8671 146.63 60.7993C147.014 60.7314 147.353 60.641 147.647 60.5279L147.987 61.9188C147.602 62.0545 147.127 62.1789 146.562 62.292C145.996 62.4051 145.51 62.4616 145.103 62.4616C144.153 62.4616 143.384 62.1789 142.796 61.6135C142.231 61.0254 141.948 60.2452 141.948 59.2727V37.4928ZM149.37 53.4715C149.37 51.8205 149.721 50.3052 150.422 48.9255C151.123 47.5459 152.084 46.4377 153.306 45.6009C154.527 44.7415 155.918 44.3117 157.479 44.3117C159.016 44.3117 160.373 44.7188 161.55 45.533C162.748 46.3472 163.687 47.3198 164.365 48.4506V37.4928H166.062V60.019C166.062 60.2904 166.118 60.494 166.231 60.6297C166.367 60.7654 166.548 60.8445 166.774 60.8671V62.2581C166.412 62.3033 166.141 62.3146 165.96 62.292C165.553 62.2241 165.213 62.0319 164.942 61.7153C164.671 61.3986 164.535 61.0594 164.535 60.6975V58.7299C163.811 59.9059 162.839 60.8445 161.617 61.5456C160.396 62.2467 159.141 62.5973 157.852 62.5973C156.63 62.5973 155.5 62.3485 154.459 61.851C153.419 61.3308 152.514 60.641 151.745 59.7815C150.999 58.9221 150.411 57.9496 149.981 56.864C149.574 55.7784 149.37 54.6475 149.37 53.4715ZM164.365 56.3212V50.52C164.049 49.6606 163.54 48.8803 162.839 48.1792C162.138 47.4555 161.346 46.89 160.464 46.4829C159.582 46.0532 158.711 45.8384 157.852 45.8384C156.834 45.8384 155.907 46.0532 155.07 46.4829C154.256 46.9127 153.543 47.4894 152.933 48.2131C152.345 48.9368 151.892 49.7624 151.576 50.6896C151.259 51.5943 151.101 52.5329 151.101 53.5054C151.101 54.5005 151.282 55.4617 151.643 56.389C152.005 57.2937 152.503 58.1079 153.136 58.8316C153.792 59.5327 154.538 60.0869 155.375 60.494C156.235 60.8784 157.162 61.0707 158.157 61.0707C158.768 61.0707 159.412 60.9463 160.091 60.6975C160.792 60.4487 161.448 60.1095 162.058 59.6798C162.692 59.2274 163.212 58.7185 163.619 58.1531C164.049 57.5651 164.297 56.9544 164.365 56.3212ZM171.464 62.2581V44.6171H173.16V62.2581H171.464ZM171.464 40.6139V37.4928H173.16V40.6139H171.464ZM192.905 62.2581H191.209V52.4198C191.209 50.1581 190.881 48.5071 190.225 47.4668C189.592 46.4038 188.574 45.8723 187.172 45.8723C186.177 45.8723 185.193 46.1098 184.22 46.5847C183.271 47.0597 182.434 47.7155 181.71 48.5524C181.009 49.3666 180.5 50.2938 180.183 51.3342V62.2581H178.487V44.6171H180.082V48.8238C180.557 47.9191 181.19 47.1388 181.981 46.4829C182.773 45.8044 183.655 45.2729 184.628 44.8885C185.6 44.504 186.606 44.3117 187.647 44.3117C188.619 44.3117 189.434 44.4927 190.089 44.8545C190.768 45.1938 191.311 45.6914 191.718 46.3472C192.148 47.0031 192.453 47.8173 192.634 48.7898C192.815 49.7624 192.905 50.8706 192.905 52.1145V62.2581ZM205.158 62.5295C203.959 62.5295 202.84 62.2807 201.799 61.7831C200.782 61.2855 199.9 60.607 199.153 59.7476C198.43 58.8656 197.853 57.893 197.423 56.8301C197.016 55.7445 196.812 54.6249 196.812 53.4715C196.812 52.2728 197.005 51.1194 197.389 50.0111C197.796 48.9029 198.362 47.9304 199.085 47.0936C199.832 46.2342 200.702 45.5557 201.698 45.0581C202.693 44.5605 203.801 44.3117 205.022 44.3117C206.56 44.3117 207.895 44.7188 209.025 45.533C210.179 46.3246 211.151 47.2971 211.943 48.4506V44.6171H213.504V62.5973C213.504 64.1805 213.119 65.5149 212.35 66.6005C211.581 67.6861 210.563 68.4889 209.297 69.0091C208.03 69.5519 206.662 69.8233 205.192 69.8233C203.134 69.8233 201.494 69.4502 200.273 68.7038C199.074 67.9575 198.102 66.9736 197.355 65.7523L198.509 64.9721C199.21 66.1481 200.16 67.0189 201.358 67.5843C202.557 68.1497 203.835 68.4324 205.192 68.4324C206.391 68.4324 207.487 68.2062 208.483 67.7539C209.5 67.3242 210.303 66.6683 210.891 65.7863C211.502 64.9268 211.807 63.8638 211.807 62.5973V58.7299C211.106 59.8833 210.145 60.8106 208.924 61.5117C207.725 62.1902 206.47 62.5295 205.158 62.5295ZM205.565 61.0707C206.311 61.0707 207.035 60.935 207.736 60.6636C208.437 60.3922 209.082 60.0303 209.67 59.578C210.258 59.103 210.744 58.5828 211.129 58.0174C211.513 57.452 211.739 56.8866 211.807 56.3212V50.52C211.468 49.6153 210.948 48.8125 210.247 48.1113C209.568 47.3876 208.799 46.8335 207.94 46.449C207.08 46.0419 206.198 45.8384 205.294 45.8384C204.231 45.8384 203.281 46.0645 202.444 46.5169C201.607 46.9692 200.895 47.5685 200.307 48.3149C199.741 49.0386 199.3 49.8641 198.984 50.7914C198.69 51.6961 198.543 52.6007 198.543 53.5054C198.543 54.5232 198.724 55.4844 199.085 56.389C199.447 57.2937 199.945 58.1079 200.578 58.8316C201.234 59.5327 201.98 60.0869 202.817 60.494C203.677 60.8784 204.593 61.0707 205.565 61.0707ZM235.39 61.4099C235.277 61.4552 235.051 61.5682 234.711 61.7492C234.372 61.9301 233.942 62.0997 233.422 62.2581C232.902 62.3938 232.325 62.4616 231.692 62.4616C231.081 62.4616 230.505 62.3485 229.962 62.1224C229.442 61.8736 229.023 61.5117 228.707 61.0368C228.39 60.5618 228.232 59.9851 228.232 59.3066V46.008H225.755V44.6171H228.232V38.5784H229.928V44.6171H234.033V46.008H229.928V58.8995C229.973 59.5554 230.211 60.0529 230.64 60.3922C231.07 60.7088 231.568 60.8671 232.133 60.8671C232.834 60.8671 233.445 60.754 233.965 60.5279C234.485 60.2791 234.791 60.1208 234.881 60.0529L235.39 61.4099ZM245.552 62.5973C244.308 62.5973 243.155 62.3598 242.092 61.8849C241.029 61.3873 240.101 60.7201 239.31 59.8833C238.541 59.0239 237.93 58.04 237.478 56.9318C237.048 55.801 236.833 54.6136 236.833 53.3697C236.833 51.6961 237.206 50.1808 237.953 48.8238C238.699 47.4668 239.728 46.3812 241.04 45.567C242.352 44.7301 243.822 44.3117 245.45 44.3117C247.124 44.3117 248.605 44.7301 249.894 45.567C251.184 46.4038 252.201 47.512 252.948 48.8916C253.717 50.2486 254.101 51.7413 254.101 53.3697C254.101 53.5054 254.101 53.6411 254.101 53.7768C254.101 53.9125 254.09 54.0256 254.067 54.1161H238.597C238.688 55.4504 239.061 56.6604 239.717 57.746C240.373 58.8316 241.21 59.6911 242.227 60.3243C243.268 60.935 244.399 61.2403 245.62 61.2403C246.841 61.2403 247.995 60.9237 249.08 60.2904C250.166 59.6571 250.923 58.8429 251.353 57.8478L252.846 58.2549C252.507 59.0917 251.964 59.8381 251.218 60.494C250.494 61.1498 249.634 61.67 248.639 62.0545C247.667 62.4164 246.638 62.5973 245.552 62.5973ZM238.53 52.793H252.473C252.382 51.4134 252.02 50.1921 251.387 49.1291C250.754 48.0661 249.917 47.2293 248.877 46.6186C247.859 46.008 246.728 45.7027 245.484 45.7027C244.24 45.7027 243.109 46.008 242.092 46.6186C241.074 47.2293 240.248 48.0661 239.615 49.1291C238.982 50.1921 238.62 51.4134 238.53 52.793ZM256.374 57.1693C256.374 56.1063 256.691 55.1903 257.324 54.4214C257.958 53.6298 258.828 53.0192 259.936 52.5894C261.045 52.1371 262.323 51.9109 263.77 51.9109C264.675 51.9109 265.613 51.9901 266.586 52.1484C267.558 52.3067 268.429 52.5216 269.198 52.793V51.1307C269.198 49.5023 268.723 48.2018 267.773 47.2293C266.846 46.2568 265.557 45.7705 263.906 45.7705C263.024 45.7705 262.108 45.9514 261.158 46.3133C260.208 46.6752 259.235 47.1954 258.24 47.8739L257.528 46.6526C258.681 45.8836 259.789 45.3069 260.852 44.9224C261.938 44.5153 263.012 44.3117 264.075 44.3117C266.179 44.3117 267.841 44.9337 269.062 46.1776C270.284 47.4215 270.894 49.1178 270.894 51.2664V60.019C270.894 60.2904 270.951 60.494 271.064 60.6297C271.2 60.7654 271.392 60.8445 271.641 60.8671V62.2581C271.437 62.2807 271.267 62.292 271.132 62.292C270.996 62.292 270.883 62.292 270.792 62.292C270.363 62.2241 270.024 62.0432 269.775 61.7492C269.549 61.4552 269.424 61.1272 269.402 60.7654V59.3744C268.587 60.3922 267.536 61.1838 266.247 61.7492C264.98 62.3146 263.646 62.5973 262.243 62.5973C261.135 62.5973 260.129 62.3598 259.224 61.8849C258.342 61.4099 257.641 60.7654 257.121 59.9512C256.623 59.1143 256.374 58.1871 256.374 57.1693ZM268.52 58.6281C268.746 58.3341 268.915 58.0514 269.028 57.78C269.141 57.5086 269.198 57.2598 269.198 57.0336V54.1161C268.384 53.7994 267.536 53.562 266.654 53.4036C265.772 53.2453 264.867 53.1662 263.94 53.1662C262.176 53.1662 260.739 53.5167 259.631 54.2178C258.546 54.9189 258.003 55.8688 258.003 57.0675C258.003 57.8139 258.195 58.5037 258.579 59.137C258.964 59.7702 259.495 60.2791 260.174 60.6636C260.875 61.0481 261.678 61.2403 262.583 61.2403C263.849 61.2403 265.014 61.0028 266.077 60.5279C267.163 60.0303 267.977 59.397 268.52 58.6281ZM301.973 62.2581H300.277V52.4198C300.277 50.1808 299.926 48.5297 299.225 47.4668C298.547 46.4038 297.495 45.8723 296.07 45.8723C294.623 45.8723 293.334 46.3925 292.203 47.4328C291.095 48.4506 290.314 49.7624 289.862 51.3681V62.2581H288.166V52.4198C288.166 50.1581 287.827 48.5071 287.148 47.4668C286.47 46.4038 285.418 45.8723 283.993 45.8723C282.546 45.8723 281.256 46.3812 280.126 47.3989C279.017 48.394 278.226 49.7058 277.751 51.3342V62.2581H276.055V44.6171H277.649V48.8238C278.395 47.3763 279.357 46.2681 280.533 45.4991C281.709 44.7075 282.998 44.3117 284.4 44.3117C285.87 44.3117 287.069 44.7528 287.996 45.6348C288.946 46.4942 289.511 47.6477 289.692 49.0952C290.529 47.512 291.524 46.3246 292.678 45.533C293.831 44.7188 295.143 44.3117 296.613 44.3117C297.586 44.3117 298.4 44.4927 299.056 44.8545C299.734 45.1938 300.288 45.7027 300.718 46.3812C301.17 47.037 301.487 47.8512 301.668 48.8238C301.872 49.7963 301.973 50.8932 301.973 52.1145V62.2581ZM100.286 93.4099C100.173 93.4552 99.947 93.5682 99.6078 93.7492C99.2685 93.9301 98.8388 94.0997 98.3186 94.2581C97.7984 94.3938 97.2217 94.4616 96.5885 94.4616C95.9778 94.4616 95.4011 94.3485 94.8583 94.1224C94.3381 93.8736 93.9197 93.5117 93.6031 93.0368C93.2864 92.5618 93.1281 91.9851 93.1281 91.3066V78.008H90.6516V76.6171H93.1281V70.5784H94.8244V76.6171H98.9293V78.008H94.8244V90.8995C94.8696 91.5554 95.1071 92.0529 95.5368 92.3922C95.9665 92.7088 96.4641 92.8671 97.0295 92.8671C97.7306 92.8671 98.3412 92.754 98.8614 92.5279C99.3816 92.2791 99.6869 92.1208 99.7774 92.0529L100.286 93.4099ZM117.7 94.2581H116.004V84.4198C116.004 82.2486 115.631 80.6202 114.885 79.5346C114.138 78.4264 113.053 77.8723 111.628 77.8723C110.701 77.8723 109.773 78.1098 108.846 78.5847C107.919 79.0597 107.116 79.7155 106.437 80.5524C105.759 81.3666 105.273 82.2938 104.979 83.3342V94.2581H103.282V69.4928H104.979V80.8238C105.702 79.4441 106.709 78.3472 107.998 77.533C109.287 76.7188 110.655 76.3117 112.103 76.3117C113.098 76.3117 113.946 76.4927 114.647 76.8545C115.348 77.2164 115.925 77.7366 116.377 78.4151C116.83 79.0936 117.158 79.9078 117.361 80.8577C117.587 81.8076 117.7 82.8932 117.7 84.1145V94.2581ZM121.37 89.1693C121.37 88.1063 121.687 87.1903 122.32 86.4214C122.953 85.6298 123.824 85.0192 124.932 84.5894C126.04 84.1371 127.318 83.9109 128.766 83.9109C129.67 83.9109 130.609 83.9901 131.582 84.1484C132.554 84.3067 133.425 84.5216 134.194 84.793V83.1307C134.194 81.5023 133.719 80.2018 132.769 79.2293C131.842 78.2568 130.552 77.7705 128.901 77.7705C128.019 77.7705 127.103 77.9514 126.154 78.3133C125.204 78.6752 124.231 79.1954 123.236 79.8739L122.524 78.6526C123.677 77.8836 124.785 77.3069 125.848 76.9224C126.934 76.5153 128.008 76.3117 129.071 76.3117C131.174 76.3117 132.837 76.9337 134.058 78.1776C135.279 79.4215 135.89 81.1178 135.89 83.2664V92.019C135.89 92.2904 135.947 92.494 136.06 92.6297C136.195 92.7654 136.388 92.8445 136.636 92.8671V94.2581C136.433 94.2807 136.263 94.292 136.128 94.292C135.992 94.292 135.879 94.292 135.788 94.292C135.359 94.2241 135.019 94.0432 134.771 93.7492C134.544 93.4552 134.42 93.1272 134.397 92.7654V91.3744C133.583 92.3922 132.531 93.1838 131.242 93.7492C129.976 94.3146 128.641 94.5973 127.239 94.5973C126.131 94.5973 125.124 94.3598 124.22 93.8849C123.338 93.4099 122.637 92.7654 122.116 91.9512C121.619 91.1143 121.37 90.1871 121.37 89.1693ZM133.515 90.6281C133.741 90.3341 133.911 90.0514 134.024 89.78C134.137 89.5086 134.194 89.2598 134.194 89.0336V86.1161C133.38 85.7994 132.531 85.562 131.649 85.4036C130.767 85.2453 129.863 85.1662 128.935 85.1662C127.171 85.1662 125.735 85.5167 124.627 86.2178C123.541 86.9189 122.999 87.8688 122.999 89.0675C122.999 89.8139 123.191 90.5037 123.575 91.137C123.96 91.7702 124.491 92.2791 125.17 92.6636C125.871 93.0481 126.674 93.2403 127.578 93.2403C128.845 93.2403 130.01 93.0028 131.073 92.5279C132.158 92.0303 132.972 91.397 133.515 90.6281ZM148.788 93.4099C148.675 93.4552 148.449 93.5682 148.11 93.7492C147.771 93.9301 147.341 94.0997 146.821 94.2581C146.301 94.3938 145.724 94.4616 145.091 94.4616C144.48 94.4616 143.903 94.3485 143.36 94.1224C142.84 93.8736 142.422 93.5117 142.105 93.0368C141.789 92.5618 141.63 91.9851 141.63 91.3066V78.008H139.154V76.6171H141.63V70.5784H143.326V76.6171H147.431V78.008H143.326V90.8995C143.372 91.5554 143.609 92.0529 144.039 92.3922C144.469 92.7088 144.966 92.8671 145.532 92.8671C146.233 92.8671 146.843 92.754 147.364 92.5279C147.884 92.2791 148.189 92.1208 148.28 92.0529L148.788 93.4099ZM159.276 85.4715C159.276 83.8205 159.627 82.3052 160.328 80.9255C161.029 79.5459 161.99 78.4377 163.212 77.6009C164.433 76.7415 165.824 76.3117 167.384 76.3117C168.922 76.3117 170.279 76.7188 171.455 77.533C172.654 78.3472 173.593 79.3198 174.271 80.4506V69.4928H175.967V92.019C175.967 92.2904 176.024 92.494 176.137 92.6297C176.273 92.7654 176.454 92.8445 176.68 92.8671V94.2581C176.318 94.3033 176.047 94.3146 175.866 94.292C175.458 94.2241 175.119 94.0319 174.848 93.7153C174.576 93.3986 174.441 93.0594 174.441 92.6975V90.7299C173.717 91.9059 172.744 92.8445 171.523 93.5456C170.302 94.2467 169.047 94.5973 167.758 94.5973C166.536 94.5973 165.405 94.3485 164.365 93.851C163.325 93.3308 162.42 92.641 161.651 91.7815C160.905 90.9221 160.317 89.9496 159.887 88.864C159.48 87.7784 159.276 86.6475 159.276 85.4715ZM174.271 88.3212V82.52C173.954 81.6606 173.446 80.8803 172.744 80.1792C172.043 79.4555 171.252 78.89 170.37 78.4829C169.488 78.0532 168.617 77.8384 167.758 77.8384C166.74 77.8384 165.812 78.0532 164.976 78.4829C164.161 78.9127 163.449 79.4894 162.838 80.2131C162.25 80.9368 161.798 81.7624 161.481 82.6896C161.165 83.5943 161.006 84.5329 161.006 85.5054C161.006 86.5005 161.187 87.4617 161.549 88.389C161.911 89.2937 162.409 90.1079 163.042 90.8316C163.698 91.5327 164.444 92.0869 165.281 92.494C166.14 92.8784 167.068 93.0707 168.063 93.0707C168.673 93.0707 169.318 92.9463 169.997 92.6975C170.698 92.4487 171.354 92.1095 171.964 91.6798C172.597 91.2274 173.118 90.7185 173.525 90.1531C173.954 89.5651 174.203 88.9544 174.271 88.3212ZM189.715 78.1437C188.132 78.1889 186.741 78.6639 185.542 79.5685C184.366 80.4506 183.541 81.6719 183.066 83.2324V94.2581H181.369V76.6171H182.998V80.9595C183.608 79.7155 184.423 78.7091 185.44 77.9401C186.458 77.1486 187.532 76.6962 188.663 76.5831C188.889 76.5605 189.093 76.5492 189.274 76.5492C189.455 76.5492 189.602 76.5492 189.715 76.5492V78.1437ZM192.932 94.2581V76.6171H194.628V94.2581H192.932ZM192.932 72.6139V69.4928H194.628V72.6139H192.932ZM205.383 94.2581L198.022 76.6171H199.82L206.299 92.46L212.813 76.6171H214.509L207.147 94.2581H205.383ZM224.78 94.5973C223.536 94.5973 222.382 94.3598 221.319 93.8849C220.256 93.3873 219.329 92.7201 218.537 91.8833C217.768 91.0239 217.158 90.04 216.705 88.9318C216.276 87.801 216.061 86.6136 216.061 85.3697C216.061 83.6961 216.434 82.1808 217.18 80.8238C217.927 79.4668 218.956 78.3812 220.268 77.567C221.579 76.7301 223.049 76.3117 224.678 76.3117C226.351 76.3117 227.833 76.7301 229.122 77.567C230.411 78.4038 231.429 79.512 232.175 80.8916C232.944 82.2486 233.329 83.7413 233.329 85.3697C233.329 85.5054 233.329 85.6411 233.329 85.7768C233.329 85.9125 233.317 86.0256 233.295 86.1161H217.825C217.915 87.4504 218.289 88.6604 218.944 89.746C219.6 90.8316 220.437 91.6911 221.455 92.3243C222.495 92.935 223.626 93.2403 224.847 93.2403C226.069 93.2403 227.222 92.9237 228.308 92.2904C229.393 91.6571 230.151 90.8429 230.581 89.8478L232.073 90.2549C231.734 91.0917 231.191 91.8381 230.445 92.494C229.721 93.1498 228.862 93.67 227.867 94.0545C226.894 94.4164 225.865 94.5973 224.78 94.5973ZM217.757 84.793H231.7C231.61 83.4134 231.248 82.1921 230.615 81.1291C229.981 80.0661 229.145 79.2293 228.104 78.6186C227.086 78.008 225.956 77.7027 224.712 77.7027C223.468 77.7027 222.337 78.008 221.319 78.6186C220.301 79.2293 219.476 80.0661 218.843 81.1291C218.209 82.1921 217.848 83.4134 217.757 84.793ZM242.624 94.5973C241.222 94.5973 239.922 94.3598 238.723 93.8849C237.524 93.4099 236.473 92.6862 235.568 91.7137L236.348 90.5263C237.321 91.4536 238.305 92.1321 239.3 92.5618C240.295 92.9689 241.38 93.1725 242.557 93.1725C244.072 93.1725 245.293 92.8558 246.22 92.2226C247.17 91.5893 247.645 90.7072 247.645 89.5764C247.645 88.8074 247.419 88.2194 246.967 87.8123C246.537 87.3826 245.904 87.0433 245.067 86.7946C244.253 86.5232 243.258 86.2405 242.082 85.9464C240.883 85.6298 239.865 85.3019 239.028 84.9626C238.214 84.6234 237.604 84.1823 237.196 83.6395C236.789 83.0967 236.586 82.3617 236.586 81.4344C236.586 80.281 236.868 79.3311 237.434 78.5847C238.022 77.8157 238.802 77.2503 239.775 76.8885C240.77 76.504 241.867 76.3117 243.065 76.3117C244.445 76.3117 245.644 76.5379 246.661 76.9902C247.702 77.4426 248.493 78.0419 249.036 78.7883L248.12 79.8739C247.555 79.1501 246.82 78.6186 245.915 78.2794C245.01 77.9175 244.015 77.7366 242.93 77.7366C242.116 77.7366 241.347 77.8497 240.623 78.0758C239.899 78.302 239.311 78.6752 238.859 79.1954C238.429 79.6929 238.214 80.3714 238.214 81.2309C238.214 81.9094 238.372 82.4409 238.689 82.8253C239.028 83.2098 239.526 83.5265 240.182 83.7752C240.838 84.0014 241.652 84.2502 242.624 84.5216C244.004 84.8608 245.191 85.2114 246.187 85.5733C247.182 85.9351 247.951 86.4101 248.493 86.9981C249.036 87.5635 249.308 88.3664 249.308 89.4068C249.308 91.0126 248.697 92.2791 247.476 93.2064C246.254 94.1337 244.637 94.5973 242.624 94.5973Z" fill="black"/>
<defs>
<linearGradient id="paint0_linear_755_4917" x1="31.389" y1="-68.9806" x2="24.756" y2="217.476" gradientUnits="userSpaceOnUse">
<stop offset="0.0581783" stop-color="white"/>
<stop offset="0.829856" stop-color="#0A5B9A"/>
</linearGradient>
<linearGradient id="paint1_linear_755_4917" x1="89.7695" y1="189.047" x2="330.69" y2="189.047" gradientUnits="userSpaceOnUse">
<stop stop-color="#F5A11D"/>
<stop offset="1" stop-color="#0A5B9A" stop-opacity="0.78"/>
</linearGradient>
<linearGradient id="paint2_linear_755_4917" x1="89.7695" y1="140.273" x2="323.534" y2="140.273" gradientUnits="userSpaceOnUse">
<stop stop-color="#0A5B9A"/>
<stop offset="0.425043" stop-color="#A99C75"/>
<stop offset="1" stop-color="#F2BB64"/>
</linearGradient>
</defs>
</svg>
