<svg width="25" height="24" viewBox="0 0 25 24" fill="none" xmlns="http://www.w3.org/2000/svg">
<path d="M4.88018 19.3151C9.0888 23.3553 15.9112 23.3553 20.1198 19.3151C24.3285 15.2748 24.3285 8.72527 20.1198 4.68499C15.9112 0.644716 9.0888 0.644716 4.88018 4.68499C0.672426 8.72527 0.672426 15.2748 4.88018 19.3151ZM9.66036 5.56637L11.2638 7.10568C11.5845 7.41354 11.6526 7.88941 11.4302 8.26927L10.8276 9.2963C10.7552 9.41944 10.7269 9.56196 10.747 9.70203C10.7671 9.84209 10.8345 9.97196 10.9388 10.0718L14.5086 13.4988C14.6127 13.5988 14.748 13.6633 14.8939 13.6825C15.0398 13.7016 15.1882 13.6743 15.3164 13.6047L16.3862 13.0262C16.5787 12.9221 16.8014 12.8813 17.0203 12.9102C17.2392 12.939 17.4422 13.0359 17.5983 13.186L19.2026 14.7261C19.3921 14.9084 19.4985 15.1554 19.4985 15.413C19.4985 15.6705 19.3921 15.9176 19.2026 16.0999L18.4431 16.829C18.0218 17.2325 17.4735 17.4912 16.8834 17.565C16.2932 17.6387 15.6942 17.5235 15.1793 17.237L15.1069 17.1973C11.9596 15.4708 9.32712 12.997 7.46208 10.013L7.09743 9.42872C6.78748 8.93364 6.6589 8.35327 6.73217 7.77996C6.80543 7.20665 7.07632 6.67332 7.50174 6.26485L8.22932 5.56637C8.32324 5.47609 8.43477 5.40446 8.55755 5.3556C8.68032 5.30673 8.81193 5.28158 8.94484 5.28158C9.07775 5.28158 9.20935 5.30673 9.33213 5.3556C9.4549 5.40446 9.56644 5.47609 9.66036 5.56637Z" fill="#7C7878"/>
</svg>
